<?xml version="1.0" encoding="UTF-8" standalone="no"?>
<svg width="48" height="48" viewBox="0 0 48 48" version="1.1" xmlns="http://www.w3.org/2000/svg" xmlns:svg="http://www.w3.org/2000/svg">
  <style type="text/css"><![CDATA[
    @media (prefers-color-scheme: dark) {
      #rust {
        fill: #bbbbbb;
      }
      #connRust {
        fill: url(#gradGrayWhite) !important;
      }
    }
  ]]></style>
  <defs>
    <linearGradient id="gradGrayBlack" gradientUnits="userSpaceOnUse"
      x1="24.0052" y1="25.8794" x2="24.0299" y2="34.2766">
      <stop style="stop-color:#808080;" offset="0" />
      <stop style="stop-color:#000000;" offset="1" />
    </linearGradient>
    <linearGradient id="gradGrayWhite" gradientUnits="userSpaceOnUse"
      x1="24.0052" y1="25.8794" x2="24.0299" y2="34.2766">
      <stop style="stop-color:#808080;" offset="0" />
      <stop style="stop-color:#bbbbbb;" offset="1" />
    </linearGradient>
    <linearGradient id="gradGrayBlue" gradientUnits="userSpaceOnUse"
      x1="25.5868" y1="25.1655" x2="35.3462" y2="33.3733">
      <stop style="stop-color:#808080;" offset="0" />
      <stop style="stop-color:#3773a8;" offset="1" />
    </linearGradient>
    <linearGradient id="gradGrayOrange" gradientUnits="userSpaceOnUse"
      x1="22.4761" y1="25.1552" x2="13.0899" y2="34.2828">
      <stop style="stop-color:#808080;" offset="0" />
      <stop style="stop-color:#ee8600;" offset="1" />
    </linearGradient>
    <linearGradient id="gradGrayDarkBlue" gradientUnits="userSpaceOnUse"
      x1="22.0028" y1="23.241" x2="13.9484" y2="21.5532">
      <stop style="stop-color:#808080;" offset="0" />
      <stop style="stop-color:#4520e2;" offset="1" />
    </linearGradient>
    <linearGradient id="gradGrayMediumPurple" gradientUnits="userSpaceOnUse"
      x1="23.2058" y1="21.9547" x2="20.3712" y2="11.6673">
      <stop style="stop-color:#808080;" offset="0" />
      <stop style="stop-color:#8777d4;" offset="1" />
    </linearGradient>
    <linearGradient id="gradGrayYellow" gradientUnits="userSpaceOnUse"
      x1="24.9745" y1="21.9574" x2="30.1266" y2="11.9025">
      <stop style="stop-color:#808080;" offset="0" />
      <stop style="stop-color:#ffcc00;" offset="1" />
    </linearGradient>
    <linearGradient id="gradGrayRed" gradientUnits="userSpaceOnUse"
      x1="25.9686" y1="23.3701" x2="35.642" y2="20.8712">
      <stop style="stop-color:#808080;" offset="0" />
      <stop style="stop-color:#b31301;" offset="1" />
    </linearGradient>

    <linearGradient id="gradRuby1" gradientUnits="userSpaceOnUse" x1="154.6411" y1="9.7979002" x2="192.039"
      y2="26.305901">
      <stop offset="0" style="stop-color:#B31000" />
      <stop offset="0" style="stop-color:#B31000" />
      <stop offset="0.44" style="stop-color:#910F08" />
      <stop offset="0.99" style="stop-color:#791C12" />
      <stop offset="1" style="stop-color:#791C12" />
    </linearGradient>
    <linearGradient id="gradRuby6" gradientUnits="userSpaceOnUse" x1="26.669901" y1="197.33591" x2="9.9886999"
      y2="140.742">
      <stop offset="0" style="stop-color:#8B2114" />
      <stop offset="0" style="stop-color:#8B2114" />
      <stop offset="0.43" style="stop-color:#9E100A" />
      <stop offset="0.99" style="stop-color:#B3100C" />
      <stop offset="1" style="stop-color:#B3100C" />
    </linearGradient>
    <radialGradient id="gradRuby2" cx="74.0923" cy="145.75101" r="66.943703" gradientUnits="userSpaceOnUse">
      <stop offset="0" style="stop-color:#A30C00" />
      <stop offset="0" style="stop-color:#A30C00" />
      <stop offset="0.99" style="stop-color:#800E08" />
      <stop offset="1" style="stop-color:#800E08" />
    </radialGradient>
    <radialGradient id="gradRuby4" cx="143.8315" cy="79.388199" r="50.357601" gradientUnits="userSpaceOnUse">
      <stop offset="0" style="stop-color:#A80D00" />
      <stop offset="0" style="stop-color:#A80D00" />
      <stop offset="0.99" style="stop-color:#7E0E08" />
      <stop offset="1" style="stop-color:#7E0E08" />
    </radialGradient>
    <linearGradient id="gradRuby3" gradientUnits="userSpaceOnUse" x1="193.6235" y1="47.937" x2="173.15421"
      y2="26.053801">
      <stop offset="0" style="stop-color:#79130D" />
      <stop offset="0" style="stop-color:#79130D" />
      <stop offset="0.99" style="stop-color:#9E120B" />
      <stop offset="1" style="stop-color:#9E120B" />
    </linearGradient>
    <linearGradient id="gradRuby5" gradientUnits="userSpaceOnUse" x1="178.52589" y1="115.5146" x2="137.43269"
      y2="78.683998">
      <stop offset="0" style="stop-color:#7E110B" />
      <stop offset="0" style="stop-color:#7E110B" />
      <stop offset="0.99" style="stop-color:#9E0C00" />
      <stop offset="1" style="stop-color:#9E0C00" />
    </linearGradient>
    <linearGradient id="gradRuby7" gradientUnits="userSpaceOnUse" x1="99.074699" y1="171.0332" x2="52.817699"
      y2="159.61659">
      <stop offset="0" style="stop-color:#8C0C01" />
      <stop offset="0" style="stop-color:#8C0C01" />
      <stop offset="0.54" style="stop-color:#990C00" />
      <stop offset="0.99" style="stop-color:#A80D0E" />
      <stop offset="1" style="stop-color:#A80D0E" />
    </linearGradient>
    <linearGradient id="gradRuby9" gradientUnits="userSpaceOnUse" x1="-18.5557" y1="155.10451" x2="135.0152"
      y2="-2.8092999">
      <stop offset="0" style="stop-color:#BD0012" />
      <stop offset="0" style="stop-color:#BD0012" />
      <stop offset="0.07" style="stop-color:#FFFFFF" />
      <stop offset="0.17" style="stop-color:#FFFFFF" />
      <stop offset="0.27" style="stop-color:#C82F1C" />
      <stop offset="0.33" style="stop-color:#820C01" />
      <stop offset="0.46" style="stop-color:#A31601" />
      <stop offset="0.72" style="stop-color:#B31301" />
      <stop offset="0.99" style="stop-color:#E82609" />
      <stop offset="1" style="stop-color:#E82609" />
    </linearGradient>
    <linearGradient id="gradRuby15" gradientUnits="userSpaceOnUse" x1="3.9033" y1="113.5547" x2="7.1701999"
      y2="146.2628" gradientTransform="matrix(0.05920002,0,0,0.05920002,35.542231,14.824339)">
      <stop offset="0" style="stop-color:#FFFFFF" />
      <stop offset="0" style="stop-color:#FFFFFF" />
      <stop offset="0.31" style="stop-color:#DE4024" />
      <stop offset="0.99" style="stop-color:#BF190B" />
      <stop offset="1" style="stop-color:#BF190B" />
    </linearGradient>
    <linearGradient id="gradRuby14" gradientUnits="userSpaceOnUse" x1="118.9761" y1="11.5415" x2="158.66859"
      y2="-8.3048" gradientTransform="matrix(0.05920002,0,0,0.05920002,35.542231,14.824339)">
      <stop offset="0" style="stop-color:#FFFFFF" />
      <stop offset="0" style="stop-color:#FFFFFF" />
      <stop offset="0.54" style="stop-color:#C81F11" />
      <stop offset="0.99" style="stop-color:#BF0905" />
      <stop offset="1" style="stop-color:#BF0905" />
    </linearGradient>
    <linearGradient id="gradRuby13" gradientUnits="userSpaceOnUse" x1="147.103" y1="25.521" x2="156.3141" y2="65.216202"
      gradientTransform="matrix(0.05920002,0,0,0.05920002,35.542231,14.824339)">
      <stop offset="0" style="stop-color:#FFFFFF" />
      <stop offset="0" style="stop-color:#FFFFFF" />
      <stop offset="0.18" style="stop-color:#E46342" />
      <stop offset="0.4" style="stop-color:#C82410" />
      <stop offset="0.99" style="stop-color:#A80D00" />
      <stop offset="1" style="stop-color:#A80D00" />
    </linearGradient>
    <linearGradient id="gradRuby12" gradientUnits="userSpaceOnUse" x1="96.132797" y1="76.715302" x2="99.209602"
      y2="132.1021" gradientTransform="matrix(0.05920002,0,0,0.05920002,35.542231,14.824339)">
      <stop offset="0" style="stop-color:#FFFFFF" />
      <stop offset="0" style="stop-color:#FFFFFF" />
      <stop offset="0.23" style="stop-color:#E4714E" />
      <stop offset="0.56" style="stop-color:#BE1A0D" />
      <stop offset="0.99" style="stop-color:#A80D00" />
      <stop offset="1" style="stop-color:#A80D00" />
    </linearGradient>
    <linearGradient id="gradRuby11" gradientUnits="userSpaceOnUse" x1="38.696301" y1="127.3906" x2="47.046902"
      y2="181.66141" gradientTransform="matrix(0.05920002,0,0,0.05920002,35.542231,14.824339)">
      <stop offset="0" style="stop-color:#FFFFFF" />
      <stop offset="0" style="stop-color:#FFFFFF" />
      <stop offset="0.23" style="stop-color:#E57252" />
      <stop offset="0.46" style="stop-color:#DE3B20" />
      <stop offset="0.99" style="stop-color:#A60003" />
      <stop offset="1" style="stop-color:#A60003" />
    </linearGradient>
    <linearGradient id="gradRuby10" gradientUnits="userSpaceOnUse" x1="151.79539" y1="217.7852" x2="97.929703"
      y2="181.638" gradientTransform="matrix(0.05920002,0,0,0.05920002,35.542231,14.824339)">
      <stop offset="0" style="stop-color:#871101" />
      <stop offset="0" style="stop-color:#871101" />
      <stop offset="0.99" style="stop-color:#911209" />
      <stop offset="1" style="stop-color:#911209" />
    </linearGradient>
    <linearGradient id="gradRuby8" gradientUnits="userSpaceOnUse" x1="194.895" y1="153.5576" x2="141.0276" y2="117.4093"
      gradientTransform="matrix(0.05920002,0,0,0.05920002,35.542231,14.824339)">
      <stop offset="0" style="stop-color:#871101" />
      <stop offset="0" style="stop-color:#871101" />
      <stop offset="0.99" style="stop-color:#911209" />
      <stop offset="1" style="stop-color:#911209" />
    </linearGradient>
    <linearGradient id="gradRuby17" x1="174.0737" y1="215.5488" x2="132.27631" y2="141.7533"
      gradientUnits="userSpaceOnUse" gradientTransform="matrix(0.05920002,0,0,0.05920002,35.542231,14.824339)">
      <stop offset="0" style="stop-color:#FB7655" />
      <stop offset="0" style="stop-color:#FB7655" />
      <stop offset="0.41" style="stop-color:#E42B1E" />
      <stop offset="0.99" style="stop-color:#990000" />
      <stop offset="1" style="stop-color:#990000" />
    </linearGradient>

    <linearGradient id="pythonGrad1" gradientUnits="userSpaceOnUse"
      x1="26.648937" y1="20.603781" x2="135.66525" y2="114.39767"
      gradientTransform="matrix(0.06466741,0,0,0.06529174,31.184542,28.527564)">
      <stop style="stop-color:#5a9fd4;" offset="0" />
      <stop style="stop-color:#306998;" offset="1" />
    </linearGradient>
    <linearGradient id="pythonGrad2" gradientUnits="userSpaceOnUse"
      x1="150.96111" y1="192.35176" x2="112.03144" y2="137.27299"
      gradientTransform="matrix(0.06466741,0,0,0.06529174,31.184542,28.527564)">
      <stop style="stop-color:#ffd43b;" offset="0" />
      <stop style="stop-color:#ffe873" offset="1" />
    </linearGradient>
  </defs>

  <g id="ruby">
    <path style="fill:url(#gradRuby17)" d="m 37.932728,26.521079 8.670968,-0.588389 0.667835,-8.74331 -2.642097,5.355234 z" />
    <path style="fill:url(#gradRuby8)" d="m 46.617904,25.926711 -0.74527,-5.14389 -2.030027,2.680577 z" />
    <path style="fill:url(#gradRuby10)" d="M 46.627968,25.926711 41.168009,25.498103 37.961736,26.50989 Z" />
    <path style="fill:url(#gradRuby11)" d="M 37.969432,26.511015 39.3334,22.042597 36.331959,22.684385 Z" />
    <path style="fill:url(#gradRuby12)" d="m 43.842074,23.478198 -1.255041,-4.91597 -3.591665,3.366705 z" />
    <path style="fill:url(#gradRuby13)" d="M 46.986779,18.631492 43.591658,15.858563 42.646233,18.91506 Z" />
    <path style="fill:url(#gradRuby14)" d="m 45.399034,14.869923 -1.996816,1.103488 -1.259777,-1.118288 z" />
    <path style="fill:url(#gradRuby15)" d="m 35.542231,24.18327 0.836496,-1.525584 -0.676656,-1.817441 z" />
    <path fill="#ffffff" d="m 35.657079,20.782821 0.6808,1.931105 2.958225,-0.663692 3.377361,-3.138785 0.953121,-3.02743 -1.50078,-1.05968 -2.551521,0.954896 c -0.803877,0.747697 -2.363798,2.227105 -2.420038,2.254929 -0.05565,0.02842 -1.03008,1.870129 -1.497168,2.748657 z" />
    <path style="fill:url(#gradRuby9)" d="m 38.047576,17.3137 c 1.742256,-1.727457 3.988305,-2.748065 4.850257,-1.878417 0.86142,0.869649 -0.0521,2.983089 -1.794352,4.709954 -1.742257,1.726865 -3.960482,2.803713 -4.821842,1.934065 -0.861952,-0.869057 0.02368,-3.038737 1.765937,-4.765602 z" />
    <path style="fill:url(#gradRuby7)" d="m 37.969432,26.509239 1.353312,-4.482625 4.494466,1.443888 c -1.625041,1.523809 -3.432417,2.812001 -5.847778,3.038737 z" />
    <path style="fill:url(#gradRuby5)" d="m 42.679385,18.902629 1.153809,4.570241 c 1.357456,-1.427312 2.575793,-2.961777 3.17247,-4.85973 z" />
    <path style="fill:url(#gradRuby3)" d="m 46.993883,18.636228 c 0.46176,-1.393568 0.56832,-3.392753 -1.609116,-3.763937 l -1.786657,0.986864 z" />
    <path fill="#9e1209" d="m 35.542231,24.163142 c 0.06394,2.29998 1.723312,2.334257 2.430161,2.354444 l -1.632737,-3.813132 z" />
    <path style="fill:url(#gradRuby4)" d="m 42.685838,18.909733 c 1.043104,0.641136 3.145356,1.928736 3.18798,1.952416 0.06625,0.0373 0.906353,-1.416656 1.096977,-2.238353 z" />
    <path style="fill:url(#gradRuby2)" d="m 39.320968,22.026614 1.809153,3.490433 c 1.069744,-0.58016 1.907424,-1.287009 2.674657,-2.044177 z" />
    <path style="fill:url(#gradRuby6)" d="m 36.332551,22.70919 -0.256336,3.052353 c 0.483664,0.660672 1.149072,0.718096 1.847041,0.666592 -0.504976,-1.256816 -1.513745,-3.769857 -1.590705,-3.718945 z" />
    <path style="fill:url(#gradRuby1)" d="m 43.587514,15.866851 3.594033,0.504385 c -0.191808,-0.812817 -0.780848,-1.337329 -1.784881,-1.501313 z" />
  </g>

  <g id="js">
    <rect fill="#ffcc00" width="11.338583" height="11.338583" x="28.794333" y="0.5653761" />
    <path d="m 34.278059,5.8377858 h 0.820313 v 3.7251031 c 0,0.5136021 -0.142144,0.9215341 -0.426433,1.2237971 -0.282118,0.302263 -0.655382,0.453395 -1.119792,0.453395 -0.494792,0 -0.876737,-0.141302 -1.145834,-0.423906 -0.269097,-0.282604 -0.403646,-0.675792 -0.403646,-1.1795631 h 0.820313 c 0,0.285061 0.06185,0.5000861 0.185547,0.6450741 0.125868,0.14253 0.307075,0.213795 0.54362,0.213795 0.221354,0 0.397135,-0.08232 0.527344,-0.246971 0.132379,-0.167104 0.198568,-0.3968731 0.198568,-0.6893061 z" />
    <path d="m 38.638594,9.7840579 q 0,-0.353869 -0.221354,-0.545548 -0.218099,-0.191679 -0.791016,-0.387044 -0.572917,-0.195366 -0.911459,-0.434964 -0.647787,-0.4607667 -0.647787,-1.2016801 0,-0.6487597 0.465495,-1.0689789 0.46875,-0.4202193 1.214193,-0.4202193 0.494792,0 0.882162,0.2064235 0.38737,0.2064235 0.608724,0.5897815 0.221355,0.3796718 0.221355,0.8441247 h -0.820313 q 0,-0.4202192 -0.234375,-0.6561319 -0.23112,-0.2395987 -0.664063,-0.2395987 -0.403646,0 -0.628256,0.1953651 -0.221354,0.1953651 -0.221354,0.5455479 0,0.2948907 0.240886,0.4939416 0.240885,0.195365 0.794271,0.3833584 0.553386,0.1843072 0.888672,0.4239052 0.335287,0.235913 0.491537,0.545548 0.15625,0.30595 0.15625,0.718796 0,0.6708761 -0.455729,1.0689791 -0.452475,0.394417 -1.23047,0.394417 -0.514323,0 -0.947266,-0.213797 -0.429688,-0.217481 -0.670573,-0.597153 -0.23763,-0.379672 -0.23763,-0.8846721 h 0.823568 q 0,0.4570801 0.266927,0.7077371 0.266927,0.250658 0.764974,0.250658 0.429688,0 0.644532,-0.195366 0.218099,-0.199051 0.218099,-0.5234301 z" />
  </g>

  <g id="php">
    <path fill="#777bb3" d="m 7.7541723,7.0041899 c 0,2.7087534 4.1745007,4.9046771 9.3238067,4.9046771 v 0 c 5.149306,0 9.323841,-2.1959237 9.323841,-4.9046771 v 0 c 0,-2.7087197 -4.174535,-4.9046772 -9.323841,-4.9046772 v 0 c -5.149306,0 -9.3238067,2.1959575 -9.3238067,4.9046772" />
    <path fill="#000000" d="M 11.648438,4.8359375 10.693359,9.75 h 1.070313 l 0.253906,-1.3066406 h 0.917969 c 0.404678,0 0.736692,-0.041802 0.998047,-0.1269532 0.261354,-0.084915 0.499085,-0.2276544 0.71289,-0.4277343 C 14.825891,7.7237315 14.970845,7.5426833 15.082031,7.34375 15.193081,7.1449515 15.271719,6.9255551 15.318359,6.6855469 15.431669,6.1029108 15.346483,5.6473913 15.0625,5.3222656 14.778482,4.9971401 14.326426,4.8359375 13.707031,4.8359375 Z m 0.919921,0.7753906 h 0.734375 c 0.40677,0 0.676934,0.07444 0.8125,0.2246094 0.1354,0.1501695 0.168507,0.4081476 0.09766,0.7734375 -0.07406,0.3804655 -0.216425,0.6517723 -0.427735,0.8144531 -0.211276,0.162647 -0.533152,0.2441407 -0.964844,0.2441407 h -0.652343 z" />
    <path fill="#000000" d="m 16.207031,3.5292969 -0.955078,4.9140625 h 1.0625 l 0.546875,-2.8144532 h 0.847656 c 0.271776,10e-8 0.449674,0.044792 0.533204,0.1347657 0.0835,0.089974 0.100824,0.2584658 0.05273,0.5058593 l -0.421875,2.1738282 h 1.080078 L 19.396484,6.15625 C 19.486829,5.6909707 19.419406,5.3542194 19.193359,5.1464844 18.967313,4.9388842 18.556389,4.8359375 17.960938,4.8359375 h -0.945313 l 0.253906,-1.3066406 z" />
    <path fill="#000000" d="M 20.005859,4.8359375 19.050781,9.75 h 1.070313 L 20.375,8.4433594 h 0.917969 c 0.404678,0 0.736692,-0.041802 0.998047,-0.1269532 C 22.55237,8.2314911 22.7901,8.0887518 23.003906,7.8886719 23.183313,7.7237315 23.328267,7.5426833 23.439453,7.34375 23.550503,7.1449515 23.629141,6.9255551 23.675781,6.6855469 23.789091,6.1029108 23.703939,5.6473913 23.419922,5.3222656 23.135904,4.9971401 22.683848,4.8359375 22.064453,4.8359375 Z m 0.919922,0.7753906 h 0.734375 c 0.40677,0 0.67693,0.07444 0.8125,0.2246094 0.13543,0.1501695 0.168546,0.4081476 0.09766,0.7734375 -0.07406,0.3804655 -0.218343,0.6517723 -0.429687,0.8144531 -0.211276,0.162647 -0.531199,0.2441407 -0.962891,0.2441407 h -0.652343 z" />
  </g>

  <g id="dotnet">
    <rect fill="#512bd4" width="12.692513" height="12.692513" x="1.1524889" y="13.865033" />
    <path fill="#ffffff" d="m 3.4147013,21.97413 c -0.089744,0 -0.166027,-0.02989 -0.2288493,-0.08971 -0.062822,-0.06135 -0.094234,-0.13419 -0.094234,-0.218528 0,-0.0859 0.031411,-0.159492 0.094234,-0.220839 0.062822,-0.06135 0.1391055,-0.09202 0.2288493,-0.09202 0.091241,0 0.1682733,0.03067 0.2310956,0.09202 0.064317,0.06135 0.096477,0.134942 0.096477,0.220839 0,0.08434 -0.03216,0.157181 -0.096477,0.218528 -0.062822,0.05982 -0.1398542,0.08971 -0.2310956,0.08971 z" />
    <path fill="#ffffff" d="M 7.002374,21.923527 H 6.4190193 L 4.8821396,19.498895 C 4.8432549,19.437548 4.8110783,19.37389 4.7856654,19.30795 h -0.013472 c 0.011969,0.07056 0.017953,0.221618 0.017953,0.453173 v 2.162404 H 4.2740959 v -3.298801 h 0.6214878 l 1.4853024,2.367126 c 0.062822,0.09817 0.1032102,0.165643 0.1211634,0.20244 h 0.00896 c -0.014947,-0.0874 -0.022435,-0.235396 -0.022435,-0.443988 V 18.624726 H 7.002374 Z" />
    <path fill="#ffffff" d="M 9.5153247,21.923527 H 7.7092022 v -3.298801 h 1.7343374 v 0.464696 H 8.2432063 v 0.933957 H 9.34932 v 0.462386 H 8.2432063 v 0.975376 h 1.2721184 z" />
    <path fill="#ffffff" d="M 12.082163,19.089422 H 11.15778 v 2.834105 H 10.623776 V 19.089422 H 9.7016485 v -0.464696 h 2.3805145 z" />
  </g>

  <g id="java">
    <path fill="#4e7896" d="m 6.2870379,39.408014 c 0,0 -0.608064,0.370122 0.4229903,0.475869 1.2425354,0.158617 1.9034805,0.132204 3.2782059,-0.132182 0,0 0.3701219,0.23793 0.8724239,0.423001 -3.0931452,1.32186 -7.0058429,-0.07933 -4.5736226,-0.766687 z M 5.8904714,37.68961 c 0,0 -0.6609197,0.502293 0.3701219,0.608038 1.3483078,0.132203 2.4057924,0.158616 4.2299487,-0.211495 0,0 0.23794,0.264374 0.634487,0.396566 -3.727632,1.110366 -7.9047149,0.105748 -5.2345322,-0.793114 z m 7.2966556,3.013831 c 0,0 0.449435,0.370132 -0.502304,0.660919 -1.771295,0.52875 -7.4288709,0.687363 -9.0151004,0 -0.5551727,-0.237918 0.5023145,-0.581616 0.8459805,-0.634487 0.3436875,-0.0793 0.5287398,-0.0793 0.5287398,-0.0793 -0.6080283,-0.423001 -4.04487245,0.872413 -1.7448524,1.242535 6.318485,1.031052 11.5266345,-0.449425 9.8874885,-1.189669 z M 6.577829,35.891876 c 0,0 -2.8816409,0.687363 -1.0310314,0.925295 0.7931148,0.105736 2.3529012,0.07932 3.8069559,-0.02643 1.1896595,-0.105747 2.3793495,-0.317243 2.3793495,-0.317243 0,0 -0.423001,0.185051 -0.713821,0.370133 -2.934507,0.766656 -8.5656395,0.42298 -6.9529771,-0.370133 1.3747305,-0.66094 2.5115088,-0.581615 2.5115088,-0.581615 z m 5.155284,2.881641 c 2.960955,-1.533359 1.586235,-3.013831 0.634487,-2.82876 -0.23794,0.05287 -0.343688,0.105748 -0.343688,0.105748 0,0 0.07931,-0.158627 0.264364,-0.211496 1.877053,-0.66094 3.35753,1.982769 -0.608028,3.013821 0,0 0.02641,-0.02643 0.05287,-0.07931 z m -4.8644558,4.177078 c 2.8552284,0.185071 7.2173568,-0.105748 7.3230888,-1.454035 0,0 -0.211485,0.52875 -2.352891,0.925285 -2.4322255,0.449446 -5.4460462,0.396566 -7.217357,0.105747 0,0 0.3701112,0.317254 2.2471542,0.423001 z" />
    <path fill="#f58219" d="m 9.9353708,27.167609 c 0.6609182,2.617273 -2.3264101,3.410374 -3.4103522,5.049477 -0.7402329,1.110365 0.3436873,2.300022 1.8506066,3.648293 -0.5816153,-1.321853 -2.5644079,-2.485027 0,-4.520676 3.1989038,-2.511537 1.5597456,-4.177094 1.5597456,-4.177094 z M 11.918178,30.4194 c 0,0 -5.4195814,1.34827 -2.8287307,4.335655 0.7666558,0.872433 -0.21158,1.665586 -0.21158,1.665586 0,0 1.9563637,-1.004653 1.0575035,-2.247208 C 9.1158033,32.983775 8.4813466,32.402198 11.918178,30.4194 Z" />
  </g>

  <g id="python">
    <path style="fill:url(#pythonGrad1)" d="m 39.221099,29.872927 c -0.526918,0.0024 -1.030113,0.04739 -1.472873,0.125733 -1.304314,0.230429 -1.541127,0.712738 -1.541127,1.602198 v 1.174705 h 3.082255 v 0.391569 h -3.082255 -1.156744 c -0.895789,0 -1.680168,0.538421 -1.925512,1.562682 -0.283,1.174041 -0.295553,1.906661 0,3.132548 0.219098,0.912503 0.742333,1.562682 1.638122,1.562682 h 1.05975 v -1.40821 c 0,-1.017348 0.880234,-1.914734 1.925511,-1.914734 h 3.078663 c 0.856991,0 1.541128,-0.705618 1.541128,-1.566274 v -2.934968 c 0,-0.835309 -0.704677,-1.462789 -1.541128,-1.602198 -0.529485,-0.08814 -1.078872,-0.128182 -1.60579,-0.125733 z m -1.666861,0.944794 c 0.318376,0 0.578372,0.264242 0.578372,0.589149 0,0.323754 -0.259996,0.585556 -0.578372,0.585556 -0.319517,0 -0.578372,-0.261802 -0.578372,-0.585556 0,-0.324906 0.258855,-0.589149 0.578372,-0.589149 z" />
    <path style="fill:url(#pythonGrad2)" d="m 42.752401,33.167132 v 1.368694 c 0,1.06113 -0.899633,1.95425 -1.925512,1.95425 h -3.078663 c -0.843297,0 -1.541127,0.721749 -1.541127,1.566274 v 2.934968 c 0,0.835309 0.726359,1.326629 1.541127,1.566275 0.975669,0.286885 1.911285,0.338732 3.078663,0 0.77597,-0.224669 1.541128,-0.676816 1.541128,-1.566275 v -1.174705 h -3.078663 v -0.391569 h 3.078663 1.541128 c 0.89579,0 1.229597,-0.624832 1.541127,-1.562682 0.321799,-0.965501 0.308107,-1.893987 0,-3.132548 -0.22138,-0.891764 -0.644198,-1.562682 -1.541127,-1.562682 z m -1.731524,7.432618 c 0.319518,0 0.578372,0.261803 0.578372,0.585556 0,0.324906 -0.258855,0.58915 -0.578372,0.58915 -0.318376,0 -0.578372,-0.264244 -0.578372,-0.58915 1e-6,-0.323753 0.259996,-0.585556 0.578372,-0.585556 z" />
  </g>

  <path id="rust" d="m 23.174884,33.829414 c -0.01904,-0.0016 -0.03799,7.84e-4 -0.06055,0.0039 -0.09161,0.0111 -0.141645,0.0501 -0.177735,0.134766 l -0.345703,0.822265 c -0.104103,0.02498 -0.207833,0.05344 -0.310547,0.08398 l -0.710937,-0.542969 c -0.07218,-0.05413 -0.13408,-0.06204 -0.21875,-0.02734 -0.08467,0.0347 -0.124229,0.08417 -0.136719,0.175782 l -0.119141,0.884765 c -0.09439,0.05136 -0.185733,0.10659 -0.277343,0.162109 L 19.99129,35.186836 c -0.08467,-0.0347 -0.148523,-0.02622 -0.220703,0.0293 -0.07218,0.05552 -0.09704,0.114858 -0.08594,0.205078 l 0.113281,0.886718 c -0.07773,0.07357 -0.154945,0.148833 -0.228515,0.226563 l -0.884766,-0.113281 c -0.09022,-0.0111 -0.149558,0.01376 -0.205078,0.08594 -0.05552,0.07218 -0.064,0.136033 -0.0293,0.220703 l 0.337891,0.826172 c -0.05552,0.09161 -0.108797,0.184907 -0.160157,0.279297 l -0.884765,0.119141 c -0.09161,0.01249 -0.141081,0.05205 -0.175781,0.136718 -0.0347,0.08467 -0.02679,0.146571 0.02734,0.21875 l 0.541016,0.710938 c -0.03053,0.102715 -0.05704,0.206444 -0.08203,0.310547 l -0.824219,0.34375 c -0.08467,0.03609 -0.123666,0.08612 -0.134766,0.177734 -0.01249,0.09022 0.01237,0.148168 0.08594,0.205078 l 0.705078,0.546875 c -0.0042,0.106878 -0.0042,0.213434 0,0.320313 l -0.705078,0.546875 c -0.07357,0.05691 -0.09843,0.114858 -0.08594,0.205078 0.0111,0.09161 0.0501,0.141644 0.134766,0.177734 l 0.824219,0.34375 c 0.02498,0.104102 0.05149,0.207832 0.08203,0.310547 l -0.541016,0.710938 c -0.05413,0.07218 -0.06204,0.13408 -0.02734,0.21875 0.0347,0.08467 0.08417,0.124229 0.175781,0.136719 l 0.884765,0.11914 c 0.05136,0.09439 0.104637,0.187687 0.160157,0.279297 l -0.337891,0.826172 c -0.0347,0.08467 -0.02622,0.148523 0.0293,0.220703 0.05552,0.07218 0.114858,0.09705 0.205078,0.08594 l 0.884766,-0.113282 c 0.07357,0.07773 0.150785,0.152993 0.228515,0.226563 l -0.113281,0.886719 c -0.0111,0.09022 0.01376,0.149558 0.08594,0.205078 0.07218,0.05552 0.136033,0.064 0.220703,0.0293 l 0.826172,-0.339843 c 0.09161,0.05552 0.182953,0.110749 0.277343,0.162109 l 0.119141,0.884766 c 0.01249,0.09161 0.05205,0.141081 0.136719,0.175781 0.08467,0.0347 0.14657,0.02679 0.21875,-0.02734 l 0.710937,-0.542969 c 0.102714,0.03053 0.206444,0.059 0.310547,0.08398 l 0.345703,0.822265 c 0.03609,0.08467 0.08613,0.123656 0.177735,0.134766 0.09022,0.01249 0.148168,-0.01041 0.205078,-0.08398 l 0.544922,-0.707032 c 0.106879,0.0042 0.215386,0.0042 0.322265,0 l 0.544922,0.707032 c 0.05691,0.07356 0.114858,0.09647 0.205078,0.08398 0.09161,-0.01111 0.141645,-0.0501 0.177735,-0.134766 l 0.345703,-0.822265 c 0.104103,-0.02498 0.207832,-0.05345 0.310547,-0.08398 l 0.710937,0.542969 c 0.07218,0.05413 0.13408,0.06204 0.21875,0.02734 0.08467,-0.0347 0.124229,-0.08417 0.136719,-0.175781 l 0.119141,-0.884766 c 0.09438,-0.05136 0.187686,-0.106589 0.279296,-0.162109 l 0.826172,0.339843 c 0.08467,0.0347 0.148523,0.02622 0.220703,-0.0293 0.07218,-0.05552 0.09704,-0.114859 0.08594,-0.205078 L 28.25301,45.218094 c 0.07773,-0.07357 0.154946,-0.148833 0.228516,-0.226563 l 0.884766,0.113282 c 0.09022,0.0111 0.149558,-0.01376 0.205078,-0.08594 0.05552,-0.07218 0.064,-0.136033 0.0293,-0.220703 l -0.337891,-0.826172 c 0.05552,-0.09161 0.108796,-0.184907 0.160156,-0.279297 l 0.884766,-0.11914 c 0.09161,-0.01249 0.141081,-0.05205 0.175781,-0.136719 0.0347,-0.08467 0.02679,-0.14657 -0.02734,-0.21875 l -0.541016,-0.710938 c 0.03053,-0.102715 0.05899,-0.206445 0.08398,-0.310547 l 0.822266,-0.34375 c 0.08467,-0.03609 0.123666,-0.08612 0.134766,-0.177734 0.01249,-0.09022 -0.01041,-0.148168 -0.08398,-0.205078 L 30.165127,40.92317 c 0.0042,-0.106879 0.0042,-0.213435 0,-0.320313 l 0.707031,-0.546875 c 0.07357,-0.05691 0.09647,-0.114858 0.08398,-0.205078 -0.0111,-0.09161 -0.0501,-0.141644 -0.134766,-0.177734 l -0.822266,-0.34375 c -0.02498,-0.104103 -0.05344,-0.207832 -0.08398,-0.310547 l 0.541016,-0.710938 c 0.05413,-0.07218 0.06204,-0.13408 0.02734,-0.21875 -0.0347,-0.08467 -0.08417,-0.124228 -0.175781,-0.136718 L 29.42293,37.83332 c -0.05136,-0.09439 -0.104636,-0.187687 -0.160156,-0.279297 l 0.337891,-0.826172 c 0.0347,-0.08467 0.02622,-0.148523 -0.0293,-0.220703 -0.05552,-0.07218 -0.114858,-0.09704 -0.205078,-0.08594 l -0.884766,0.113281 c -0.07357,-0.07773 -0.150786,-0.152993 -0.228516,-0.226563 l 0.115235,-0.886718 c 0.0111,-0.09022 -0.01376,-0.149558 -0.08594,-0.205078 -0.07218,-0.05552 -0.136033,-0.064 -0.220703,-0.0293 L 27.23543,35.526679 C 27.14382,35.471158 27.050523,35.41593 26.956134,35.36457 l -0.119141,-0.884765 c -0.01249,-0.09161 -0.05205,-0.141082 -0.136719,-0.175782 -0.08467,-0.0347 -0.14657,-0.02679 -0.21875,0.02734 l -0.710937,0.542969 c -0.102715,-0.03053 -0.206444,-0.059 -0.310547,-0.08398 l -0.345703,-0.822265 c -0.03609,-0.08467 -0.08612,-0.123666 -0.177735,-0.134766 -0.09022,-0.01249 -0.148168,0.01042 -0.205078,0.08398 l -0.544922,0.707031 c -0.106879,-0.0042 -0.215386,-0.0042 -0.322265,0 l -0.544922,-0.707031 c -0.04268,-0.05518 -0.08741,-0.08308 -0.144531,-0.08789 z m 0.851562,2.041015 a 4.892829,4.892829 0 0 1 4.892578,4.892579 4.892829,4.892829 0 0 1 -0.04883,0.566406 h -0.564453 c -0.03748,0 -0.0625,0.0315 -0.0625,0.08008 v 0.224609 c 0,0.53023 -0.298208,0.646633 -0.560547,0.675782 -0.254011,0.02915 -0.530833,-0.104564 -0.558594,-0.25586 -0.147132,-0.828657 -0.393988,-1.006567 -0.78125,-1.310547 0.477484,-0.306755 0.984375,-0.756967 0.984375,-1.359375 0,-0.650988 -0.451314,-1.060453 -0.753906,-1.261718 -0.427515,-0.280383 -0.899645,-0.335938 -1.027344,-0.335938 H 20.16121 a 4.892829,4.892829 0 0 1 3.865234,-1.916016 z m -4.628906,3.333985 h 1.404297 v 3.109375 h -1.40625 a 4.892829,4.892829 0 0 1 -0.263672,-1.550781 4.892829,4.892829 0 0 1 0.265625,-1.558594 z m 3.554687,0.0332 h 1.613281 c 0.159624,0 0.589279,0.07444 0.587891,0.501953 0,0.351173 -0.421096,0.450349 -0.707031,0.453125 l -1.494141,0.01367 z m 0,2.21875 h 1.234375 c 0.113819,0 0.602918,0.03471 0.759766,0.662109 0.04858,0.191549 0.156903,0.817702 0.230469,1.017579 0.07357,0.226249 0.373546,0.675781 0.691406,0.675781 h 1.972656 a 4.892829,4.892829 0 0 1 -7.628906,0 h 3.828125 c 0.04303,0 0.07226,-0.01356 0.07227,-0.04687 v -1.355469 c 0,-0.03887 -0.02924,-0.04687 -0.07227,-0.04687 h -1.087891 z" />

  <g id="connections">
    <path style="fill:url(#gradGrayBlue)" d="m 24.879549,25.607723 0.985421,-1.170774 10.013925,8.428554 c -0.698429,-0.0557 -1.619795,-0.01638 -1.997726,0.318732 z" />
    <path style="fill:url(#gradGrayOrange)" d="m 22.116675,24.342411 1.078509,1.085624 -7.776567,7.570249 c -0.867769,0.75188 -2.562917,1.835127 -2.687651,1.74671 -0.164913,-0.116898 0.902577,-1.732683 1.698751,-2.619793 z" />
    <path id="connRust" style="fill:url(#gradGrayBlack)" d="m 23.228249,25.452034 h 1.530282 v 7.823773 c -0.354339,0.0919 -0.380546,0.212857 -0.740335,0.851094 C 23.683899,33.534727 23.4493,33.25724 23.228249,33.275807 Z" />
    <path style="fill:url(#gradGrayDarkBlue)" d="m 23.093386,22.754276 -0.294415,1.520523 -8.43592,-1.648643 -0.0061,-1.563488 z" />
    <path style="fill:url(#gradGrayYellow)" d="m 30.782391,12.404775 -5.313807,10.430126 -1.380236,-0.702695 4.954053,-9.730767 z" />
    <path style="fill:url(#gradGrayRed)" d="m 35.262988,21.807118 -10.622419,2.8096 -0.396026,-1.497277 11.395317,-3.014028 c -0.150775,0.215902 -0.296426,0.453873 -0.336385,0.694608 -0.05099,0.307226 -0.01505,0.653799 -0.04049,1.007097 z" />
    <path style="fill:url(#gradGrayMediumPurple)" d="m 24.178747,22.362403 -1.493448,0.410228 -2.924715,-10.647509 c 0.608186,-0.09175 1.076734,-0.191838 1.525623,-0.293094 z" />
    <circle fill="#808080" cx="24.026445" cy="23.831367" r="2" id="circle2664" />
  </g>
</svg>
