<?xml version="1.0" encoding="UTF-8" standalone="no"?>
<svg width="48" height="48" viewBox="0 0 48 48" version="1.1" xmlns="http://www.w3.org/2000/svg"
  xmlns:svg="http://www.w3.org/2000/svg">
  <style type="text/css"><![CDATA[
    @media (prefers-color-scheme: dark) {
      #brackets {
        fill: #aaaaaa !important;
      }

      #underlined,
      #didYouMean {
        fill: #cccccc !important;
      }
    }
  ]]></style>

  <g id="brackets" fill="#646464">
    <path d="m 1.35886,20.4038 v -12.88 h 4.86665 v 1.12 H 2.63885 v 10.64 h 3.58666 v 1.12 z" />
    <path d="m 41.8788,20.4038 v -1.12 h 3.5866 v -10.64 h -3.5866 v -1.12 h 4.8666 v 12.88 z" />
  </g>

  <g id="underlined" fill="#444444">
    <path
      d="m 11.8788,18.4971 q -0.28,0 -0.56,-0.04 -0.2666,-0.053 -0.52,-0.1733 -0.2533,-0.12 -0.4533,-0.32 -0.1867,-0.2 -0.32,-0.4534 -0.12,-0.2533 -0.17333,-0.52 -0.04,-0.28 -0.04,-0.56 V 9.81713 h -2.04 v -1.12 h 3.32003 v 7.73327 q 0,0.1734 0.027,0.36 0.04,0.1734 0.1467,0.32 0.1067,0.1334 0.2667,0.2 0.1733,0.067 0.3466,0.067 h 1.3867 v 1.12 z" />
    <path
      d="m 16.5455,18.6038 q -0.28,0 -0.5733,-0.04 -0.28,-0.04 -0.5467,-0.1467 -0.2667,-0.1067 -0.4933,-0.2933 -0.2267,-0.1867 -0.3734,-0.4267 -0.1466,-0.24 -0.2133,-0.52 -0.067,-0.28 -0.067,-0.5733 0,-0.3734 0.12,-0.7334 0.12,-0.36 0.3734,-0.6266 0.2533,-0.28 0.5866,-0.4534 0.3467,-0.1733 0.7067,-0.2666 0.36,-0.1067 0.72,-0.1334 0.3733,-0.04 0.7466,-0.04 h 1.3067 v -0.4933 q 0,-0.2933 -0.1333,-0.56 -0.12,-0.28 -0.36,-0.44 -0.24,-0.16 -0.5334,-0.2133 -0.2933,-0.067 -0.5866,-0.067 -0.2667,0 -0.5333,0.053 -0.2667,0.04 -0.5067,0.1734 -0.24,0.1333 -0.4,0.3733 -0.1467,0.2267 -0.1467,0.4933 h -1.28 q 0,-0.3333 0.1067,-0.6666 0.12,-0.3334 0.32,-0.6 0.2133,-0.2667 0.4933,-0.4534 0.2934,-0.1866 0.6134,-0.2933 0.32,-0.12 0.6533,-0.16 0.3467,-0.04 0.68,-0.04 0.36,0 0.7066,0.053 0.36,0.04 0.6934,0.16 0.3333,0.12 0.6266,0.3334 0.2934,0.2133 0.4934,0.5066 0.2,0.2934 0.28,0.64 0.093,0.3467 0.093,0.7067 v 4.64 h -1.28 v -1.16 q -0.16,0.32 -0.4,0.5733 -0.24,0.24 -0.56,0.4 -0.3067,0.16 -0.6533,0.2267 -0.3334,0.067 -0.68,0.067 z m 0.4933,-1.12 q 0.3334,0 0.6534,-0.067 0.3333,-0.08 0.5999,-0.28 0.2667,-0.2 0.4,-0.5067 0.1467,-0.32 0.1467,-0.6533 v -0.52 h -1.3066 q -0.2,0 -0.4134,0.013 -0.2,0.013 -0.4,0.053 -0.2,0.04 -0.4,0.1066 -0.2,0.053 -0.3733,0.16 -0.1733,0.1067 -0.28,0.2934 -0.1067,0.1866 -0.1067,0.3866 0,0.2534 0.1334,0.48 0.1466,0.2134 0.36,0.3334 0.2266,0.12 0.48,0.16 0.2533,0.04 0.5066,0.04 z" />
    <path
      d="m 25.1721,18.4971 q -0.2666,0 -0.5466,-0.04 -0.28,-0.053 -0.5334,-0.1733 -0.24,-0.12 -0.44,-0.32 -0.2,-0.2 -0.32,-0.4534 -0.12,-0.2533 -0.1733,-0.52 -0.04,-0.28 -0.04,-0.56 v -3.7466 h -1.9333 v -1.12 h 1.9333 V 8.69713 h 1.2667 v 2.86667 h 2.5333 v 1.12 h -2.5333 v 3.7466 q 0,0.1734 0.04,0.36 0.04,0.1734 0.1466,0.32 0.1067,0.1334 0.2667,0.2 0.16,0.067 0.3333,0.067 h 1.7467 v 1.12 z" />
    <path
      d="m 28.1721,18.4971 v -1.12 h 2.1467 v -4.6933 h -1.9333 v -1.12 h 3.2133 v 5.8133 h 1.9333 v 1.12 z m 2.68,-8.0133 q -0.1866,0 -0.3733,-0.053 -0.1733,-0.053 -0.3067,-0.1867 -0.1333,-0.1333 -0.1866,-0.30667 -0.053,-0.18667 -0.053,-0.37333 0,-0.18667 0.053,-0.36 0.053,-0.18667 0.1866,-0.32 0.1334,-0.13333 0.3067,-0.18667 0.1867,-0.0533 0.3733,-0.0533 0.1867,0 0.36,0.0533 0.1867,0.0533 0.32,0.18667 0.1334,0.13333 0.1867,0.32 0.053,0.17333 0.053,0.36 0,0.18666 -0.053,0.37333 -0.053,0.17337 -0.1867,0.30667 -0.1333,0.1333 -0.32,0.1867 -0.1733,0.053 -0.36,0.053 z" />
    <path
      d="m 34.7854,18.4971 v -6.9333 h 1.28 v 1.2267 q 0.1334,-0.2934 0.3334,-0.56 0.2133,-0.2667 0.4933,-0.44 0.28,-0.1867 0.6,-0.2534 0.3333,-0.08 0.6533,-0.08 0.36,0 0.7067,0.093 0.3467,0.08 0.6267,0.2933 0.2933,0.2 0.4933,0.5067 0.2133,0.2933 0.3333,0.6266 0.12,0.3333 0.16,0.68 0.053,0.3467 0.053,0.7067 v 4.1333 h -1.28 v -4.1333 q 0,-0.2267 -0.04,-0.4534 -0.027,-0.2266 -0.12,-0.4266 Q 38.9984,13.27 38.8517,13.0967 38.7184,12.91 38.5184,12.79 38.3317,12.67 38.105,12.63 q -0.2266,-0.053 -0.4533,-0.053 -0.2267,0 -0.4533,0.053 -0.2267,0.04 -0.4267,0.16 -0.1867,0.12 -0.3333,0.3067 -0.1334,0.1733 -0.2267,0.3867 -0.08,0.2 -0.12,0.4266 -0.027,0.2267 -0.027,0.4534 v 4.1333 z" />
  </g>

  <g id="line" fill="none" stroke="#ff5500" style="stroke-width:1px;stroke-linecap:round;stroke-linejoin:round">
    <path d="m 12.038,23.032 1.8897,-1.8897 1.8898,1.8897" />
    <path d="M 8.25841,23.032 10.1482,21.1423 12.038,23.032" />
    <path d="m 19.597,23.032 1.8898,-1.8897 1.8898,1.8897" />
    <path d="m 15.8175,23.032 1.8898,-1.8897 1.8897,1.8897" />
    <path d="m 27.1561,23.032 1.8898,-1.8897 1.8897,1.8897" />
    <path d="m 23.3766,23.032 1.8897,-1.8897 1.8898,1.8897" />
    <path d="m 34.7151,23.032 1.8898,-1.8897 1.8898,1.8897" />
    <path d="m 30.9356,23.032 1.8898,-1.8897 1.8897,1.8897" />
    <path d="m 38.4947,23.032 1.8897,-1.8897" />
  </g>

  <g id="arrow" stroke="#ff5500" style="stroke-width:0.82;stroke-linecap:round;stroke-linejoin:round">
    <path style="fill:none"
      d="m 3.35613,26.2654 c -0.0942,1.1913 -0.2008,2.5203 0.66883,3.6901 0.80457,1.0822 1.8543,1.3258 2.9329,1.4708" />
    <path style="fill:#ff5500;stroke-width:0.409303" d="M 6.89459,29.9183 9.60523,31.4898 6.89459,32.934 Z" />
  </g>

  <g id="didYouMean" fill="#444444">
    <path
      d="m 11.9311,33.1483 v -3.7917 h 1.1198 q 0.5026,0 0.8906,0.224 0.3906,0.2239 0.6042,0.6354 0.2135,0.4114 0.2135,0.9427 v 0.1901 q 0,0.5391 -0.2162,0.9479 -0.2135,0.4089 -0.6119,0.6302 -0.3959,0.2214 -0.9089,0.2214 z m 0.6588,-3.2604 v 2.7343 h 0.4297 q 0.5182,0 0.7943,-0.3229 0.2786,-0.3255 0.2838,-0.9323 v -0.2109 q 0,-0.6172 -0.2682,-0.9427 -0.2682,-0.3255 -0.7786,-0.3255 z" />
    <path
      d="m 16.0274,33.1483 h -0.6328 v -2.8177 h 0.6328 z m -0.6719,-3.5495 q 0,-0.1458 0.091,-0.2422 0.094,-0.096 0.2656,-0.096 0.1719,0 0.2656,0.096 0.094,0.096 0.094,0.2422 0,0.1432 -0.094,0.2396 -0.094,0.094 -0.2656,0.094 -0.1719,0 -0.2656,-0.094 -0.091,-0.096 -0.091,-0.2396 z" />
    <path
      d="m 16.5977,31.7186 q 0,-0.6511 0.3021,-1.0443 0.3021,-0.3958 0.8099,-0.3958 0.4479,0 0.724,0.3125 v -1.4427 h 0.6328 v 4 h -0.5729 l -0.031,-0.2917 q -0.2838,0.3437 -0.7578,0.3437 -0.4948,0 -0.8021,-0.3984 -0.3047,-0.3984 -0.3047,-1.0833 z m 0.6328,0.055 q 0,0.4297 0.1641,0.6718 0.1667,0.2396 0.4714,0.2396 0.388,0 0.5677,-0.3463 v -1.2032 q -0.1745,-0.3385 -0.5625,-0.3385 -0.3073,0 -0.474,0.2448 -0.1667,0.2422 -0.1667,0.7318 z" />
    <path
      d="m 22.0404,32.242 0.573,-1.9114 h 0.6744 l -1.1198,3.2447 q -0.2578,0.711 -0.875,0.711 -0.138,0 -0.3046,-0.047 v -0.4896 l 0.1197,0.01 q 0.2396,0 0.3594,-0.088 0.1224,-0.086 0.1927,-0.2917 l 0.091,-0.2422 -0.9896,-2.8046 h 0.6823 z" />
    <path
      d="m 23.4936,31.7134 q 0,-0.4141 0.164,-0.7448 0.1641,-0.3334 0.461,-0.5104 0.2968,-0.1797 0.6823,-0.1797 0.5703,0 0.9244,0.3672 0.3568,0.3672 0.3854,0.9739 v 0.1485 q 0,0.4166 -0.1614,0.7448 -0.1589,0.3281 -0.4583,0.5078 -0.2969,0.1796 -0.6875,0.1796 -0.5964,0 -0.9558,-0.3958 -0.3567,-0.3984 -0.3567,-1.0599 z m 0.6328,0.055 q 0,0.4349 0.1797,0.6823 0.1796,0.2447 0.5,0.2447 0.3203,0 0.4974,-0.25 0.1796,-0.25 0.1796,-0.7317 0,-0.4271 -0.1849,-0.6771 -0.1822,-0.25 -0.4973,-0.25 -0.3099,0 -0.4922,0.2474 -0.1823,0.2448 -0.1823,0.7344 z" />
    <path
      d="m 28.3555,32.8722 q -0.2786,0.3281 -0.7916,0.3281 -0.4584,0 -0.6953,-0.2682 -0.2344,-0.2682 -0.2344,-0.776 v -1.8255 h 0.6328 v 1.8177 q 0,0.5364 0.4453,0.5364 0.4609,0 0.6224,-0.3307 v -2.0234 h 0.6328 v 2.8177 h -0.5963 z" />
    <path
      d="m 31.5352,30.3306 0.018,0.2942 q 0.2968,-0.3463 0.8125,-0.3463 0.5651,0 0.7734,0.4323 0.3073,-0.4323 0.8646,-0.4323 0.4661,0 0.6927,0.2578 0.2291,0.2578 0.2344,0.7604 v 1.8516 h -0.6329 v -1.8334 q 0,-0.2682 -0.1171,-0.3932 -0.1172,-0.125 -0.3881,-0.125 -0.2161,0 -0.3541,0.1172 -0.1354,0.1146 -0.1901,0.3021 v 1.9323 h -0.6328 v -1.8542 q -0.013,-0.4974 -0.5079,-0.4974 -0.3802,0 -0.539,0.3099 v 2.0417 H 30.936 v -2.8177 z" />
    <path
      d="m 36.8217,33.2003 q -0.6016,0 -0.9766,-0.3776 -0.3724,-0.3802 -0.3724,-1.0104 v -0.078 q 0,-0.4219 0.1615,-0.7526 0.164,-0.3333 0.4583,-0.5182 0.2943,-0.1849 0.6563,-0.1849 0.5755,0 0.888,0.3672 0.3151,0.3671 0.3151,1.039 V 31.94 h -1.8412 q 0.029,0.349 0.2318,0.5521 0.2057,0.2031 0.5156,0.2031 0.4349,0 0.7084,-0.3515 l 0.3411,0.3255 q -0.1693,0.2526 -0.4531,0.3932 -0.2813,0.138 -0.6328,0.138 z m -0.075,-2.414 q -0.2605,0 -0.4219,0.1823 -0.1589,0.1823 -0.2031,0.5078 h 1.2057 v -0.047 q -0.021,-0.3177 -0.1693,-0.4791 -0.1484,-0.1641 -0.4114,-0.1641 z" />
    <path
      d="m 40.1264,33.1483 q -0.042,-0.081 -0.073,-0.2631 -0.302,0.3151 -0.7395,0.3151 -0.4245,0 -0.6927,-0.2421 -0.2683,-0.2422 -0.2683,-0.599 0,-0.4505 0.3334,-0.6901 0.3359,-0.2422 0.9583,-0.2422 h 0.388 V 31.242 q 0,-0.2187 -0.1224,-0.3489 -0.1224,-0.1329 -0.3724,-0.1329 -0.2161,0 -0.3541,0.1094 -0.1381,0.1068 -0.1381,0.2735 h -0.6328 q 0,-0.2318 0.1537,-0.4323 0.1536,-0.2032 0.4166,-0.3177 0.2657,-0.1146 0.5912,-0.1146 0.4948,0 0.789,0.25 0.2943,0.2474 0.3021,0.6979 v 1.2708 q 0,0.3802 0.1068,0.6068 v 0.044 z m -0.6953,-0.4558 q 0.1875,0 0.3515,-0.091 0.1667,-0.091 0.25,-0.2448 v -0.5313 h -0.3411 q -0.3516,0 -0.5287,0.1224 -0.1771,0.1224 -0.1771,0.3464 0,0.1823 0.1198,0.2917 0.1224,0.1067 0.3256,0.1067 z" />
    <path
      d="m 41.9154,30.3306 0.018,0.3255 q 0.3125,-0.3776 0.8203,-0.3776 0.8802,0 0.8958,1.0078 v 1.862 H 43.017 v -1.8256 q 0,-0.2682 -0.1172,-0.3958 -0.1146,-0.1302 -0.3776,-0.1302 -0.3828,0 -0.5703,0.3464 v 2.0052 h -0.6328 v -2.8177 z" />
    <path
      d="m 44.6758,32.4816 q 0.1771,0 0.2735,0.1016 0.096,0.099 0.096,0.25 0,0.1484 -0.096,0.2474 -0.096,0.096 -0.2735,0.096 -0.1692,0 -0.2682,-0.096 -0.099,-0.096 -0.099,-0.2474 0,-0.1511 0.096,-0.25 0.096,-0.1016 0.2708,-0.1016 z m 0,-2.2109 q 0.1771,0 0.2735,0.1015 0.096,0.099 0.096,0.25 0,0.1485 -0.096,0.2474 -0.096,0.096 -0.2735,0.096 -0.1692,0 -0.2682,-0.096 -0.099,-0.096 -0.099,-0.2474 0,-0.151 0.096,-0.25 0.096,-0.1015 0.2708,-0.1015 z" />
  </g>

  <g id="suggestion" fill="#e09500">
    <path d="m 12.4139,41.6748 v -5.4589 h 0.713 v 4.835 h 2.2207 v 0.6239 z" />
    <path
      d="m 17.1339,41.7342 q -0.1559,0 -0.3193,-0.022 -0.156,-0.022 -0.3045,-0.082 -0.1486,-0.059 -0.2748,-0.1634 -0.1263,-0.1039 -0.208,-0.2376 -0.082,-0.1337 -0.1188,-0.2897 -0.037,-0.1559 -0.037,-0.3193 0,-0.208 0.067,-0.4085 0.067,-0.2006 0.2079,-0.3491 0.1411,-0.156 0.3268,-0.2525 0.1931,-0.097 0.3937,-0.1486 0.2005,-0.059 0.401,-0.074 0.208,-0.022 0.4159,-0.022 h 0.7279 v -0.2748 q 0,-0.1634 -0.074,-0.312 -0.067,-0.1559 -0.2005,-0.245 -0.1337,-0.089 -0.2971,-0.1189 -0.1634,-0.037 -0.3268,-0.037 -0.1485,0 -0.2971,0.03 -0.1485,0.022 -0.2822,0.096 -0.1337,0.074 -0.2228,0.208 -0.082,0.1263 -0.082,0.2748 h -0.713 q 0,-0.1857 0.059,-0.3714 0.067,-0.1856 0.1783,-0.3342 0.1188,-0.1485 0.2748,-0.2525 0.1634,-0.104 0.3416,-0.1634 0.1783,-0.067 0.3639,-0.089 0.1931,-0.022 0.3788,-0.022 0.2005,0 0.3936,0.03 0.2006,0.022 0.3863,0.089 0.1856,0.067 0.349,0.1857 0.1634,0.1189 0.2748,0.2822 0.1114,0.1634 0.156,0.3565 0.052,0.1931 0.052,0.3937 v 2.5846 h -0.713 v -0.6462 q -0.089,0.1783 -0.2228,0.3194 -0.1337,0.1337 -0.312,0.2228 -0.1708,0.089 -0.3639,0.1263 -0.1857,0.037 -0.3788,0.037 z m 0.2748,-0.6239 q 0.1857,0 0.364,-0.037 0.1856,-0.045 0.3342,-0.156 0.1485,-0.1114 0.2228,-0.2822 0.082,-0.1782 0.082,-0.3639 v -0.2897 h -0.7279 q -0.1114,0 -0.2302,0.01 -0.1114,0.01 -0.2228,0.03 -0.1114,0.022 -0.2228,0.059 -0.1114,0.03 -0.208,0.089 -0.097,0.059 -0.156,0.1634 -0.059,0.104 -0.059,0.2154 0,0.1411 0.074,0.2674 0.082,0.1188 0.2005,0.1856 0.1263,0.067 0.2674,0.089 0.1411,0.022 0.2822,0.022 z" />
    <path
      d="m 21.9877,41.6748 q -0.1486,0 -0.3045,-0.022 -0.156,-0.03 -0.2971,-0.097 -0.1337,-0.067 -0.2451,-0.1783 -0.1114,-0.1114 -0.1783,-0.2525 -0.067,-0.1411 -0.097,-0.2897 -0.022,-0.1559 -0.022,-0.3119 v -2.087 H 19.767 v -0.6239 h 1.0769 v -1.5968 h 0.7056 v 1.5968 h 1.4111 v 0.6239 h -1.4111 v 2.087 q 0,0.097 0.022,0.2005 0.022,0.097 0.082,0.1783 0.059,0.074 0.1485,0.1114 0.089,0.037 0.1857,0.037 h 0.9729 v 0.6239 z" />
    <path
      d="m 23.7072,41.6748 v -0.6239 h 1.1958 v -2.6143 h -1.077 v -0.6239 h 1.79 v 3.2382 h 1.0769 v 0.6239 z m 1.4929,-4.4637 q -0.104,0 -0.208,-0.03 -0.097,-0.03 -0.1708,-0.104 -0.074,-0.074 -0.104,-0.1708 -0.03,-0.104 -0.03,-0.2079 0,-0.104 0.03,-0.2006 0.03,-0.1039 0.104,-0.1782 0.074,-0.074 0.1708,-0.104 0.104,-0.03 0.208,-0.03 0.1039,0 0.2005,0.03 0.104,0.03 0.1782,0.104 0.074,0.074 0.104,0.1782 0.03,0.097 0.03,0.2006 0,0.1039 -0.03,0.2079 -0.03,0.097 -0.104,0.1708 -0.074,0.074 -0.1782,0.104 -0.097,0.03 -0.2005,0.03 z" />
    <path
      d="m 27.4395,41.6748 v -3.8621 h 0.713 v 0.6833 q 0.074,-0.1634 0.1857,-0.3119 0.1188,-0.1486 0.2748,-0.2451 0.1559,-0.104 0.3342,-0.1411 0.1857,-0.045 0.3639,-0.045 0.2005,0 0.3936,0.052 0.1931,0.045 0.3491,0.1634 0.1634,0.1114 0.2748,0.2822 0.1188,0.1634 0.1857,0.3491 0.067,0.1857 0.089,0.3788 0.03,0.1931 0.03,0.3936 v 2.3024 h -0.713 V 39.372 q 0,-0.1263 -0.022,-0.2525 -0.015,-0.1263 -0.067,-0.2377 -0.045,-0.1188 -0.1263,-0.2154 -0.074,-0.1039 -0.1856,-0.1708 -0.104,-0.067 -0.2303,-0.089 -0.1262,-0.03 -0.2525,-0.03 -0.1263,0 -0.2525,0.03 -0.1263,0.022 -0.2377,0.089 -0.104,0.067 -0.1857,0.1708 -0.074,0.097 -0.1262,0.2154 -0.045,0.1114 -0.067,0.2377 -0.015,0.1262 -0.015,0.2525 v 2.3024 z" />
  </g>
</svg>