<?xml version="1.0" encoding="UTF-8" standalone="no"?>
<svg width="48" height="48" viewBox="0 0 48 48" version="1.1" xmlns="http://www.w3.org/2000/svg"
  xmlns:svg="http://www.w3.org/2000/svg">
  <style type="text/css"><![CDATA[
    @media (prefers-color-scheme: dark) {
      #gray {
        fill: #cccccc !important;
      }
    }
  ]]></style>

  <g fill="#e09500">
    <path d="M 5.0401752,18.549619 V 16.136292 H 2.8135141 v -1.119997 h 2.2266611 v -2.413327 h 1.2799967 v 2.413327 H 8.546833 v 1.119997 H 6.3201719 v 2.413327 z" />
    <path d="m 11.556828,18.509619 -1.039997,-0.653331 1.599996,-2.039995 -2.4399938,-0.706665 0.3866658,-1.066664 2.333327,0.853331 -0.106666,-2.54666 h 1.279997 l -0.106667,2.54666 2.333328,-0.853331 0.386665,1.066664 -2.439993,0.706665 1.599996,2.039995 -1.039998,0.653331 -1.37333,-2.053328 z" />
    <path d="m 19.540145,17.162956 v -2.359994 h 0.639998 q 0.226666,0 0.453332,-0.04 0.226666,-0.04 0.426666,-0.133333 0.199999,-0.106666 0.359999,-0.266666 0.173333,-0.159999 0.266666,-0.359999 0.106666,-0.213333 0.146666,-0.426665 0.04,-0.226667 0.04,-0.453333 0,-0.226666 -0.04,-0.453332 -0.04,-0.226666 -0.146666,-0.426665 -0.09333,-0.213333 -0.266666,-0.373333 -0.16,-0.159999 -0.359999,-0.253333 -0.2,-0.106666 -0.426666,-0.146666 -0.226666,-0.04 -0.453332,-0.04 H 18.033482 V 10.30964 h 2.146661 q 0.386666,0 0.773331,0.06667 0.386666,0.05333 0.733332,0.213332 0.359999,0.16 0.639998,0.426666 0.293333,0.266666 0.479999,0.613332 0.2,0.333332 0.266666,0.719998 0.08,0.386666 0.08,0.773331 0,0.493332 -0.146666,0.986664 -0.133333,0.493333 -0.453333,0.879998 -0.319999,0.386666 -0.786664,0.613332 -0.453333,0.226666 -0.946665,0.293333 v 1.266663 z m 0.639998,3.053326 q -0.213333,0 -0.413332,-0.06667 -0.2,-0.05333 -0.346666,-0.199999 -0.146666,-0.146667 -0.213333,-0.346666 -0.05333,-0.213333 -0.05333,-0.413332 0,-0.213333 0.05333,-0.413333 0.06667,-0.213332 0.213333,-0.359999 0.146666,-0.146666 0.346666,-0.199999 0.199999,-0.06667 0.413332,-0.06667 0.213333,0 0.413332,0.06667 0.2,0.05333 0.346666,0.199999 0.146666,0.146667 0.2,0.359999 0.06667,0.2 0.06667,0.413333 0,0.199999 -0.06667,0.413332 -0.05333,0.199999 -0.2,0.346666 -0.146666,0.146666 -0.346666,0.199999 -0.199999,0.06667 -0.413332,0.06667 z" />
    <path d="m 15.503485,38.987903 q -0.413332,0 -0.826664,-0.04 -0.413333,-0.04 -0.813332,-0.146666 -0.386665,-0.106666 -0.773331,-0.293332 -0.373333,-0.173333 -0.679998,-0.453333 -0.293333,-0.279999 -0.466666,-0.679998 -0.159999,-0.386666 -0.159999,-0.799998 0,-0.373332 0.119999,-0.746665 0.133333,-0.373332 0.333333,-0.693331 v -0.01333 q 0.119999,-0.2 0.213332,-0.413333 0.09333,-0.213333 0.09333,-0.453332 0,-0.226666 -0.106667,-0.439999 -0.09333,-0.226666 -0.279999,-0.373332 -0.186666,-0.146667 -0.413332,-0.24 -0.213333,-0.09333 -0.453333,-0.133333 -0.226666,-0.05333 -0.466665,-0.06667 -0.226666,-0.02667 -0.466666,-0.02667 v -0.279999 -0.839998 q 0.24,0 0.466666,-0.01333 0.239999,-0.02667 0.466665,-0.06667 0.24,-0.05333 0.453333,-0.146666 0.226666,-0.09333 0.413332,-0.239999 0.186666,-0.146667 0.279999,-0.359999 0.106667,-0.226667 0.106667,-0.453333 0,-0.239999 -0.09333,-0.453332 -0.09333,-0.213333 -0.213332,-0.413332 v -0.01333 q -0.2,-0.32 -0.333333,-0.693332 -0.119999,-0.373332 -0.119999,-0.746665 0,-0.413332 0.159999,-0.799998 0.173333,-0.399999 0.466666,-0.679998 0.306665,-0.279999 0.679998,-0.453332 0.386666,-0.186666 0.773331,-0.293333 0.399999,-0.106666 0.813332,-0.146666 0.413332,-0.04 0.826664,-0.04 v 1.119997 q -0.253333,0 -0.506665,0.02667 -0.253333,0.01333 -0.506666,0.06667 -0.253332,0.05333 -0.493332,0.133333 -0.239999,0.08 -0.453332,0.226666 -0.213333,0.133333 -0.359999,0.359999 -0.133333,0.213333 -0.133333,0.479999 0,0.226666 0.09333,0.439999 0.106666,0.213333 0.213333,0.413332 l 0.01333,0.01333 q 0.186666,0.333332 0.319999,0.706665 0.133333,0.359999 0.133333,0.746664 0,0.32 -0.106666,0.626665 -0.106666,0.306666 -0.319999,0.546666 -0.213333,0.226666 -0.493332,0.399999 -0.28,0.159999 -0.586666,0.266666 0.306666,0.106666 0.586666,0.279999 0.279999,0.16 0.493332,0.399999 0.213333,0.226666 0.319999,0.533332 0.106666,0.306666 0.106666,0.626665 0,0.386666 -0.133333,0.759998 -0.133333,0.359999 -0.319999,0.693332 l -0.01333,0.01333 q -0.106667,0.199999 -0.213333,0.413332 -0.09333,0.213333 -0.09333,0.439999 0,0.266666 0.133333,0.479999 0.146666,0.226666 0.359999,0.359999 0.213333,0.146666 0.453332,0.226666 0.24,0.08 0.493332,0.133333 0.253333,0.05333 0.506666,0.06667 0.253332,0.02667 0.506665,0.02667 z" />
    <path d="m 39.35677,38.987903 v -1.119997 q 0.253333,0 0.506666,-0.02667 0.253332,-0.01333 0.506665,-0.06667 0.253333,-0.05333 0.493332,-0.133333 0.24,-0.08 0.453332,-0.226666 0.213333,-0.133333 0.346666,-0.359999 0.146667,-0.213333 0.146667,-0.479999 0,-0.226666 -0.106667,-0.439999 -0.09333,-0.213333 -0.199999,-0.413332 l -0.01333,-0.01333 q -0.186666,-0.333333 -0.319999,-0.693332 -0.133333,-0.373332 -0.133333,-0.759998 0,-0.319999 0.106667,-0.626665 0.106666,-0.306666 0.319999,-0.533332 0.213333,-0.239999 0.493332,-0.399999 0.279999,-0.173333 0.586665,-0.279999 -0.306666,-0.106667 -0.586665,-0.266666 -0.279999,-0.173333 -0.493332,-0.399999 -0.213333,-0.24 -0.319999,-0.546666 -0.106667,-0.306665 -0.106667,-0.626665 0,-0.386665 0.133333,-0.746664 0.133333,-0.373333 0.319999,-0.706665 l 0.01333,-0.01333 q 0.106666,-0.199999 0.199999,-0.413332 0.106667,-0.213333 0.106667,-0.439999 0,-0.266666 -0.146667,-0.479999 -0.133333,-0.226666 -0.346666,-0.359999 -0.213332,-0.146666 -0.453332,-0.226666 -0.239999,-0.08 -0.493332,-0.133333 -0.253333,-0.05333 -0.506665,-0.06667 -0.253333,-0.02667 -0.506666,-0.02667 v -1.11999 q 0.413333,0 0.826665,0.04 0.413332,0.04 0.799998,0.146666 0.399999,0.106667 0.773331,0.293333 0.386666,0.173333 0.679999,0.453332 0.306666,0.279999 0.466665,0.679998 0.173333,0.386666 0.173333,0.799998 0,0.373333 -0.133333,0.746665 -0.12,0.373332 -0.319999,0.693332 v 0.01333 q -0.12,0.199999 -0.213333,0.413332 -0.09333,0.213333 -0.09333,0.453332 0,0.226666 0.09333,0.453333 0.106666,0.213332 0.293333,0.359999 0.186666,0.146666 0.399999,0.239999 0.226666,0.09333 0.453332,0.146666 0.239999,0.04 0.466665,0.06667 0.24,0.01333 0.479999,0.01333 v 0.279999 0.839998 q -0.239999,0 -0.479999,0.02667 -0.226666,0.01333 -0.466665,0.06667 -0.226666,0.04 -0.453332,0.133333 -0.213333,0.09333 -0.399999,0.24 -0.186667,0.146666 -0.293333,0.373332 -0.09333,0.213333 -0.09333,0.439999 0,0.239999 0.09333,0.453332 0.09333,0.213333 0.213333,0.413333 v 0.01333 q 0.199999,0.319999 0.319999,0.693331 0.133333,0.373333 0.133333,0.746665 0,0.413332 -0.173333,0.799998 -0.159999,0.399999 -0.466665,0.679998 -0.293333,0.28 -0.679999,0.453333 -0.373332,0.186666 -0.773331,0.293332 -0.386666,0.106667 -0.799998,0.146666 -0.413332,0.04 -0.826665,0.04 z" />
  </g>
  <g fill="#ff5500">
    <path d="m 32.720117,14.042964 -1.01333,-0.773331 2.306661,-2.506661 h 1.333329 l 2.306661,2.506661 -1.01333,0.773331 -1.959995,-2.439994 z" />
    <path d="m 41.290099,21.536278 v -1.839995 q -0.453332,-0.05333 -0.893331,-0.226666 -0.439999,-0.186666 -0.773332,-0.506665 -0.333332,-0.333333 -0.519998,-0.773332 -0.173333,-0.439999 -0.173333,-0.906664 0,-0.01333 0,-0.02667 0,-0.02667 0,-0.04 h 1.279997 q 0,0 0,0.01333 0,0.01333 0,0.02667 0,0.24 0.09333,0.479999 0.09333,0.239999 0.266666,0.426666 0.186666,0.173332 0.413332,0.279999 0.239999,0.09333 0.493332,0.133333 V 15.72296 q -0.466665,-0.12 -0.906664,-0.333333 -0.426666,-0.213333 -0.773332,-0.546665 -0.333332,-0.333333 -0.533332,-0.786665 -0.199999,-0.453332 -0.199999,-0.933331 0,-0.439999 0.159999,-0.866664 0.16,-0.439999 0.466666,-0.759998 0.319999,-0.333333 0.733331,-0.519999 0.426666,-0.186666 0.866665,-0.239999 V 8.8696437 h 1.279997 v 1.8533283 q 0.439999,0.06667 0.866664,0.253333 0.426666,0.173333 0.733332,0.506665 0.319999,0.32 0.479998,0.759999 0.173333,0.426665 0.173333,0.879997 0,0.01333 0,0.02667 0,0.01333 0,0.02667 h -1.279996 q 0,0 0,-0.01333 0,-0.01333 0,-0.01333 0,-0.239999 -0.08,-0.466666 -0.08,-0.226666 -0.24,-0.399999 -0.159999,-0.186666 -0.386665,-0.293332 -0.213333,-0.106667 -0.453333,-0.146666 v 2.813326 q 0.479999,0.133333 0.933331,0.346666 0.453333,0.199999 0.799998,0.546665 0.359999,0.333332 0.573332,0.786665 0.213333,0.453332 0.213333,0.946664 0,0.466665 -0.173333,0.906664 -0.173333,0.439999 -0.506665,0.759998 -0.333333,0.319999 -0.773332,0.506666 -0.426665,0.173333 -0.879997,0.239999 v 1.839995 z m 0.186666,-7.106648 v -2.573327 q -0.226666,0.04 -0.439999,0.146666 -0.213333,0.09333 -0.373332,0.266666 -0.16,0.173333 -0.24,0.399999 -0.08,0.226666 -0.08,0.453332 0,0.226666 0.08,0.453333 0.09333,0.213332 0.253333,0.386665 0.16,0.173333 0.359999,0.293333 0.213333,0.106666 0.439999,0.173333 z m 0.906664,4.146656 q 0.24,-0.04 0.466666,-0.133333 0.226666,-0.106667 0.399999,-0.266666 0.186666,-0.173333 0.279999,-0.399999 0.09333,-0.24 0.09333,-0.479999 0,-0.253333 -0.106666,-0.479999 -0.09333,-0.226666 -0.266666,-0.399999 -0.173333,-0.173333 -0.399999,-0.279999 -0.226666,-0.12 -0.466666,-0.186666 z" />
    <path d="m 5.6801735,37.054575 q -0.2266661,0 -0.4533321,-0.06667 -0.2266661,-0.06667 -0.3866657,-0.226666 -0.1599996,-0.173333 -0.2399994,-0.386665 -0.066667,-0.226666 -0.066667,-0.466666 0,-0.226666 0.066667,-0.453332 0.08,-0.226666 0.2399994,-0.386666 0.1599996,-0.159999 0.3866657,-0.226666 0.226666,-0.06667 0.4533321,-0.06667 0.2266661,0 0.4533322,0.06667 0.2266661,0.06667 0.3866657,0.226666 0.1599996,0.16 0.2266661,0.386666 0.08,0.226666 0.08,0.453332 0,0.24 -0.08,0.466666 -0.066667,0.213332 -0.2266661,0.386665 -0.1599996,0.16 -0.3866657,0.226666 -0.2266661,0.06667 -0.4533322,0.06667 z" />
  </g>
  <g id="gray" fill="#444444">
    <path d="M 26.790129,22.016277 V 9.1363097 h 1.279997 V 22.016277 Z" />
    <path d="m 17.50015,36.947909 v -1.119998 h 2.146661 v -7.226648 l -1.599996,1.21333 -0.759998,-0.879998 2.359994,-1.786662 h 1.266664 v 8.679978 h 1.946661 v 1.119998 z" />
    <path d="m 26.910129,39.814568 -0.866664,-0.706665 q 0.439998,-0.439999 0.799998,-0.959997 0.373332,-0.506666 0.586665,-1.093331 0,0 -0.01333,0 0,0 0,0 -0.226666,0 -0.453332,-0.08 -0.213333,-0.06667 -0.386665,-0.226666 -0.16,-0.16 -0.226667,-0.386666 -0.06667,-0.226666 -0.06667,-0.453332 0,-0.226666 0.06667,-0.453332 0.08,-0.226666 0.24,-0.386666 0.159999,-0.159999 0.386666,-0.226666 0.226666,-0.06667 0.453332,-0.06667 0.239999,0 0.466665,0.06667 0.226666,0.06667 0.386666,0.24 0.16,0.173332 0.226666,0.413332 0.06667,0.226666 0.06667,0.453332 0,0.533332 -0.133333,1.053331 -0.133333,0.533332 -0.36,1.013331 -0.226666,0.493332 -0.533332,0.93333 -0.293332,0.453333 -0.639998,0.866665 z" />
    <path d="m 35.76011,36.947909 v -2.519994 h -4.053323 v -1.119997 l 3.893323,-6.159985 h 1.466663 l -1.066664,1.679996 -2.826659,4.479989 h 2.58666 v -2.186661 h 1.279997 v 5.826652 z" />
  </g>
</svg>
