<?xml version="1.0" encoding="UTF-8" standalone="no"?>
<svg width="48" height="48" viewBox="0 0 48 48" version="1.1" xmlns="http://www.w3.org/2000/svg">
  <path style="fill:#ff5500"
    d="m 10.0941,19.8516 c 0.7307,6.337 3.274,6.3229 3.274,6.3229 0.1144,-4.7581 2.2879,-8.6479 3.8309,-10.8248 0.6602,-0.9313 1.447,-1.7685 2.3106,-2.5274 5.6187,-4.93181 2.5537,-12.210933 2.5537,-12.210933 8.3801,2.537563 7.991,10.439033 7.991,10.439033 -0.402,7.5054 3.3729,10.6122 3.3729,10.6122 2.1544,-4.4828 5.1143,-4.5397 5.1143,-4.5397 -0.9218,1.5335 -0.4932,3.3121 0.027,4.528 0.8679,2.0381 1.7774,3.8851 2.2013,5.9795 v 0 c 0.8265,3.9455 0.3538,6.2979 0.3538,6.2979 v 0 c -0.9075,8.2985 -7.7647,11.4797 -11.009,12.4965 1.9259,-1.0769 4.0939,-3.0611 4.4782,-6.58 v 0 c 0,0 0.061,-0.3051 0.077,-0.8699 0.02,-0.6482 -0.02,-1.6414 -0.2891,-2.9062 v 0 c -0.2211,-1.0942 -0.6626,-2.0755 -1.117,-3.1182 -0.068,-0.1545 -0.1353,-0.3102 -0.2027,-0.4679 -0.311,-0.7292 -0.5681,-1.7948 -0.014,-2.715 0,0 -1.7754,0.034 -3.066,2.7219 0,0 -2.2646,-1.863 -2.0224,-6.3634 0,0 0.2319,-4.7376 -4.793,-6.2589 0,0 1.8383,4.3644 -1.5308,7.3215 -0.5178,0.4554 -0.9898,0.9578 -1.386,1.5158 -0.9253,1.3047 -2.2286,3.6377 -2.2968,6.4913 0,0 -1.5255,0.01 -1.9634,-3.792 0,0 -5.2482,10.8717 2.9912,15.0817 C 18.1863,46.2748 17.4096,46.0184 16.6496,45.7128 0.702728,39.3053 10.0943,19.8497 10.0943,19.8497" />
</svg>