<?xml version="1.0" encoding="UTF-8" standalone="no"?>
<svg version="1.1" x="0px" y="0px" viewBox="0 0 48 48" width="48" height="48" xmlns="http://www.w3.org/2000/svg">
  <path style="fill:#e09500;clip-rule:evenodd;fill-rule:evenodd"
    d="m 25.7179,8.99845 c 3.6865,0.3888 7.0525,1.86475 9.7704,4.09675 l 1.8756,-1.9584 c 0.3816,-0.3996 1.0225,-0.4068 1.4221,-0.022 l 1.2599,1.224 c 0.3961,0.3852 0.4032,1.0224 0.022,1.4184 L 38.142,15.766 c 2.574,3.1788 4.1183,7.2289 4.1183,11.6353 0,10.224 -8.2907,18.5147 -18.5148,18.5147 -10.2239,0 -18.51475,-8.2871 -18.51475,-18.5111 0,-4.6152 1.692,-8.838 4.4856,-12.0817 L 7.54875,13.286 c -0.4032,-0.378 -0.414,-1.0188 -0.0324,-1.4184 l 1.2132,-1.2708 c 0.3816,-0.3996 1.0188,-0.4104 1.41835,-0.032 l 2.3076,2.1708 C 15.2671,10.568 18.716,9.19285 22.4744,8.94085 v -4.0176 h -3.564 c -0.4752,0 -0.864,-0.3888 -0.864,-0.864 v -1.512 c 0,-0.4752 0.3888,-0.864 0.864,-0.864 h 10.3679 c 0.4752,0 0.8641,0.3888 0.8641,0.864 v 1.512 c 0,0.4752 -0.3889,0.864 -0.8641,0.864 h -3.564 v 4.0752 z M 22.2368,20.6301 h 1.5803 c 0.288,0 0.5256,0.2376 0.5256,0.5256 v 6.606 h 4.8636 c 0.288,0 0.5256,0.2375 0.5256,0.5255 v 1.5804 c 0,0.288 -0.2376,0.5256 -0.5256,0.5256 h -7.4952 v -0.774 -1.8575 -6.606 c 0,-0.2916 0.2376,-0.5256 0.5257,-0.5256 z m 1.5083,-8.2585 c 8.3016,0 15.0337,6.7321 15.0337,15.0337 0,8.3016 -6.7321,15.0336 -15.0337,15.0336 -8.3016,0 -15.03355,-6.732 -15.03355,-15.0336 0,-8.3016 6.73195,-15.0336 15.03355,-15.0337 z" />
</svg>