<?xml version="1.0" encoding="UTF-8" standalone="no"?>
<svg width="48" height="48" viewBox="0 0 48 48" version="1.1" xmlns="http://www.w3.org/2000/svg"
  xmlns:svg="http://www.w3.org/2000/svg">
  <style type="text/css"><![CDATA[
    @media (prefers-color-scheme: dark) {
      #gray {
        fill: #aaaaaa;
      }
    }
  ]]></style>
  <g id="orange" fill="#e09500">
    <path d="M 4.9481,7.55906 H 14.17 a 1.05833,1.05833 45 0 1 1.0583,1.05833 V 10.2803 A 1.05833,1.05833 135 0 1 14.17,11.3386 H 4.9481 A 1.05833,1.05833 45 0 1 3.88976,10.2803 V 8.61739 A 1.05833,1.05833 135 0 1 4.9481,7.55906 Z" />
    <path d="M 4.9481,22.6772 H 14.17 a 1.05833,1.05833 45 0 1 1.0583,1.0583 v 1.6629 A 1.05833,1.05833 135 0 1 14.17,26.4567 H 4.9481 A 1.05833,1.05833 45 0 1 3.88976,25.3984 V 23.7355 A 1.05833,1.05833 135 0 1 4.9481,22.6772 Z" />
    <path d="M 4.9481,15.1181 H 14.17 a 1.05833,1.05833 45 0 1 1.0583,1.0583 v 1.6629 A 1.05833,1.05833 135 0 1 14.17,18.8976 H 4.9481 A 1.05833,1.05833 45 0 1 3.88976,17.8393 V 16.1764 A 1.05833,1.05833 135 0 1 4.9481,15.1181 Z" />
  </g>
  <g id="gray" fill="#777777">
    <path d="m 20.0662,7.55906 9.2219,0 a 1.05833,1.05833 45 0 1 1.0584,1.05833 v 1.66281 a 1.05833,1.05833 135 0 1 -1.0584,1.0584 H 20.0662 A 1.05833,1.05833 45 0 1 19.0079,10.2802 V 8.61739 a 1.05833,1.05833 135 0 1 1.0583,-1.05833 z" />
    <path d="m 20.0662,22.6772 h 3.5526 a 1.05833,1.05833 45 0 1 1.0584,1.0583 v 1.6629 a 1.05833,1.05833 135 0 1 -1.0584,1.0583 h -3.5526 a 1.05833,1.05833 45 0 1 -1.0583,-1.0583 v -1.6629 a 1.05833,1.05833 135 0 1 1.0583,-1.0583 z" />
    <path d="m 20.0662,15.1181 h 20.5605 a 1.05833,1.05833 45 0 1 1.0583,1.0583 v 1.6629 a 1.05833,1.05833 135 0 1 -1.0583,1.0583 H 20.0662 a 1.05833,1.05833 45 0 1 -1.0583,-1.0583 v -1.6629 a 1.05833,1.05833 135 0 1 1.0583,-1.0583 z" />
    <path d="m 4.9481,30.2362 h 31.8991 a 1.05833,1.05833 45 0 1 1.0583,1.0584 v 1.6628 a 1.05833,1.05833 135 0 1 -1.0583,1.0583 H 4.9481 A 1.05833,1.05833 45 0 1 3.88976,32.9574 V 31.2946 A 1.05833,1.05833 135 0 1 4.9481,30.2362 Z" />
    <path d="m 4.9481,37.7953 h 20.5605 a 1.05833,1.05833 45 0 1 1.0583,1.0583 v 1.6629 a 1.05833,1.05833 135 0 1 -1.0583,1.0583 H 4.9481 A 1.05833,1.05833 45 0 1 3.88976,40.5165 V 38.8536 A 1.05833,1.05833 135 0 1 4.9481,37.7953 Z" />
  </g>
</svg>
