<?xml version="1.0" encoding="UTF-8" standalone="no"?>
<svg width="48" height="48" viewBox="0 0 48 48" version="1.1" xmlns="http://www.w3.org/2000/svg"
  xmlns:svg="http://www.w3.org/2000/svg">
  <g>
    <path fill="#b945a0"
      d="M 41.069874,8.5419138 V 8.4996771 C 40.436324,7.654943 39.676063,6.9369191 38.789092,6.2611318 v 0.042237 C 38.071068,6.8524457 37.353044,7.4437595 36.677257,8.0350734 36.3816,7.8661266 36.12818,7.7394165 35.87476,7.6127063 35.536866,7.4437595 35.198972,7.2748127 34.818842,7.1903393 34.692132,7.1481026 34.565422,7.1058659 34.438712,7.1058659 34.354238,6.1766584 34.269765,5.247451 34.143055,4.3182435 33.720688,4.2337701 33.298321,4.2337701 32.833717,4.1915334 H 32.495823 32.15793 c -0.422367,0.042237 -0.802497,0.042237 -1.182628,0.1267101 -0.12671,0.8869708 -0.211183,1.8161782 -0.25342,2.7453857 -0.168947,0 -0.295657,0.042237 -0.464604,0.084473 -0.04224,0 -0.08447,0 -0.12671,0.042237 -0.337894,0.084473 -0.675787,0.2534202 -1.013681,0.422367 C 28.82123,7.7394165 28.56781,7.8661266 28.31439,8.0350734 27.596366,7.4437595 26.920579,6.8946824 26.202555,6.3033685 l -0.04224,-0.042237 C 25.991368,6.3878417 25.822421,6.5145518 25.695711,6.6412619 25.400054,6.8524454 25.146634,7.1058656 24.935451,7.3592858 24.55532,7.6971794 24.259663,8.1195465 23.92177,8.5419135 h 0.04224 c 0.549078,0.718024 1.140391,1.3938112 1.731705,2.1118355 -0.168947,0.25342 -0.337893,0.549077 -0.464603,0.802497 -0.168947,0.337894 -0.295657,0.718024 -0.380131,1.055918 -0.08447,0.168947 -0.12671,0.337894 -0.12671,0.464604 -0.929207,0.08447 -1.858415,0.168946 -2.745386,0.295657 -0.08447,0.422367 -0.12671,0.844734 -0.12671,1.309337 0,0.633551 0.04224,1.267101 0.168947,1.858415 0.886971,0.08447 1.773942,0.168947 2.703149,0.25342 0,0.168947 0.04224,0.337894 0.12671,0.464604 0.08447,0.380131 0.211184,0.718024 0.380131,1.098154 0.168946,0.295657 0.295656,0.591314 0.50684,0.844735 -0.591314,0.718024 -1.182628,1.393811 -1.731705,2.111835 0.633551,0.88697 1.393811,1.647231 2.280782,2.280782 v -0.04224 c 0.675787,-0.549077 1.393811,-1.140391 2.069599,-1.731705 h 0.04224 c 0.211184,0.12671 0.464604,0.25342 0.675788,0.38013 0.38013,0.168947 0.802497,0.337894 1.182627,0.422368 0.168947,0.04224 0.295657,0.08447 0.422367,0.12671 0.08447,0.88697 0.168947,1.816178 0.295657,2.745385 0.380131,0.04224 0.760261,0.08447 1.182628,0.08447 h 0.63355 c 0.464604,0 0.929208,-0.04224 1.393812,-0.12671 0.08447,-0.886971 0.168946,-1.816179 0.25342,-2.745386 0.12671,-0.04224 0.25342,-0.08447 0.38013,-0.12671 0.38013,-0.08447 0.718024,-0.211184 1.055918,-0.380131 0.295657,-0.12671 0.591314,-0.295656 0.88697,-0.50684 0,0.04224 0,0.04224 0.04224,0.04224 0.675787,0.591314 1.393811,1.182627 2.111835,1.731705 0.12671,-0.08447 0.253421,-0.168947 0.422367,-0.295657 0.253421,-0.211184 0.506841,-0.464604 0.718024,-0.718024 0.380131,-0.380131 0.760261,-0.802498 1.098155,-1.267101 -0.591314,-0.718024 -1.182628,-1.436048 -1.773942,-2.111836 v -0.04224 c 0.12671,-0.211184 0.25342,-0.464604 0.38013,-0.718024 0.126711,-0.337894 0.295657,-0.675787 0.380131,-1.013681 0,-0.04224 0,-0.08447 0.04224,-0.08447 0,-0.168947 0.04224,-0.295657 0.08447,-0.380131 0.929207,-0.08447 1.858415,-0.168947 2.745386,-0.25342 0.08447,-0.422367 0.08447,-0.844734 0.12671,-1.267101 v -0.38013 -0.337894 c -0.04224,-0.422367 -0.04224,-0.844734 -0.12671,-1.267101 -0.886971,-0.08447 -1.816179,-0.168947 -2.745386,-0.25342 -0.04224,-0.12671 -0.08447,-0.253421 -0.08447,-0.380131 -0.12671,-0.38013 -0.25342,-0.76026 -0.422367,-1.140391 -0.12671,-0.25342 -0.295657,-0.549077 -0.422367,-0.802497 0.549078,-0.6757876 1.140391,-1.3938115 1.731705,-2.1118355 z m -11.2772,3.5056462 c 0.760261,-0.802497 1.689469,-1.182628 2.745386,-1.140391 1.098154,-0.04224 1.985125,0.337894 2.787623,1.140391 0.76026,0.760261 1.140391,1.689468 1.140391,2.745386 0,1.098154 -0.380131,1.985125 -1.140391,2.787622 -0.802498,0.760261 -1.689469,1.140391 -2.787623,1.140391 -1.055917,0 -1.985125,-0.38013 -2.745386,-1.140391 -0.76026,-0.802497 -1.14039,-1.689468 -1.14039,-2.787622 0,-1.055918 0.38013,-1.985125 1.14039,-2.745386 z" />
    <path fill="#b945a0"
      d="m 32.580297,11.456246 c -0.929208,0 -1.689468,0.337894 -2.365255,0.971444 -0.633551,0.675788 -0.971445,1.436048 -0.971445,2.365256 0,0.929207 0.337894,1.689468 0.971445,2.365255 0.675787,0.675787 1.436047,1.013681 2.365255,1.013681 0.929207,0 1.689468,-0.337894 2.365255,-1.013681 0.675788,-0.675787 0.971444,-1.436048 0.971444,-2.365255 0,-0.929208 -0.295656,-1.689468 -0.971444,-2.365256 -0.675787,-0.63355 -1.436048,-0.971444 -2.365255,-0.971444 z m -1.773942,1.562758 c 0.506841,-0.464603 1.098155,-0.718024 1.773942,-0.718024 0.675787,0 1.267101,0.253421 1.773941,0.718024 0.506841,0.506841 0.718024,1.055918 0.718024,1.773942 0,0.718024 -0.211183,1.309338 -0.718024,1.773941 -0.50684,0.506841 -1.098154,0.760261 -1.773941,0.760261 -0.675787,0 -1.267101,-0.25342 -1.773942,-0.760261 -0.464603,-0.464603 -0.718024,-1.055917 -0.718024,-1.773941 0,-0.675787 0.253421,-1.267101 0.718024,-1.773942 z" />
    <path fill="#e09500"
      d="m 21.725464,18.383066 c -0.168947,-0.08447 -0.295657,-0.126711 -0.422367,-0.126711 -0.50684,-0.12671 -1.013681,-0.211183 -1.520521,-0.295656 -0.464604,1.140391 -0.844734,2.238545 -1.224865,3.336699 h -0.591313 -0.168947 c -0.506841,0.04224 -0.971444,0.08447 -1.436048,0.168947 -0.38013,0.04224 -0.760261,0.168947 -1.140391,0.295657 -0.675787,-0.971444 -1.393811,-1.942888 -2.069598,-2.872096 l -0.04224,-0.04224 c -0.25342,0.08447 -0.506841,0.168947 -0.718024,0.295657 -0.422367,0.168947 -0.802497,0.380131 -1.182628,0.633551 -0.591314,0.295657 -1.140391,0.675787 -1.6472312,1.140391 v 0.04224 c 0.5068402,1.055918 0.9714442,2.111836 1.4782842,3.167753 -0.295657,0.295657 -0.549077,0.549077 -0.802497,0.886971 -0.3378906,0.337893 -0.6335475,0.76026 -0.8869678,1.182627 C 9.2234001,26.365802 9.1389267,26.534749 9.0544533,26.745933 7.8718256,26.534749 6.689198,26.323566 5.5065703,26.154619 5.2953868,26.661459 5.0842032,27.1683 4.9152564,27.717377 4.7463096,28.562111 4.5773628,29.364608 4.4928894,30.167106 l 3.2944628,1.267101 v 0.591314 c 0,0.464603 0.042237,0.971444 0.1689468,1.478284 0.042237,0.422367 0.1689469,0.844734 0.295657,1.267101 -0.9714442,0.675788 -1.9006517,1.351575 -2.8720958,2.069599 0.5068404,1.267101 1.2248643,2.449729 2.0695984,3.547883 h 0.042237 c 1.0559176,-0.506841 2.1118352,-0.971444 3.2099894,-1.478285 0.25342,0.25342 0.50684,0.464604 0.76026,0.718024 0.380131,0.337894 0.844734,0.633551 1.351575,0.929208 0.12671,0.08447 0.295657,0.168946 0.464604,0.295657 -0.211184,1.140391 -0.380131,2.323018 -0.549078,3.505646 0.464604,0.211183 0.929208,0.38013 1.436048,0.50684 0.12671,0.04224 0.380131,0.12671 0.802498,0.211184 0.591314,0.168947 1.182627,0.25342 1.731705,0.337894 0.464603,-1.140391 0.88697,-2.238546 1.267101,-3.378937 h 0.50684 0.04224 c 0.50684,0 0.971444,-0.04224 1.436048,-0.12671 0.422367,-0.08447 0.844734,-0.211183 1.267101,-0.337893 0,0 0,0.04224 0.04224,0.04224 0.675788,0.971444 1.393812,1.942889 2.069599,2.914333 0.211183,-0.12671 0.422367,-0.211184 0.591314,-0.295657 0.422367,-0.168947 0.802497,-0.38013 1.182627,-0.591314 0.633551,-0.38013 1.224865,-0.802497 1.773942,-1.267101 -0.464604,-1.098154 -0.971444,-2.154072 -1.478285,-3.252226 0.253421,-0.25342 0.464604,-0.506841 0.718024,-0.760261 0.295657,-0.38013 0.591314,-0.802497 0.844734,-1.182628 0,-0.04224 0.04224,-0.08447 0.04224,-0.12671 0.08447,-0.12671 0.168947,-0.295657 0.25342,-0.422367 1.182628,0.211184 2.365256,0.380131 3.547883,0.591314 0.211184,-0.50684 0.380131,-1.013681 0.549078,-1.562758 0.04224,-0.12671 0.08447,-0.25342 0.12671,-0.422367 0.04224,-0.12671 0.04224,-0.25342 0.12671,-0.422367 0.08447,-0.549077 0.211183,-1.098154 0.25342,-1.604995 -1.098154,-0.464603 -2.238545,-0.844734 -3.3367,-1.267101 v -0.50684 c 0,-0.506841 -0.04224,-1.055918 -0.168946,-1.562758 -0.04224,-0.380131 -0.168947,-0.760261 -0.253421,-1.140391 0.971445,-0.675787 1.942889,-1.393811 2.872096,-2.111835 h 0.04224 c -0.506841,-1.267101 -1.182628,-2.449729 -2.111835,-3.547883 -1.098155,0.464603 -2.154072,0.971444 -3.20999,1.478284 -0.295657,-0.295657 -0.591314,-0.591314 -0.88697,-0.844734 -0.380131,-0.295657 -0.760261,-0.591314 -1.182628,-0.802497 -0.12671,-0.12671 -0.295657,-0.211184 -0.422367,-0.295657 0.168947,-1.182628 0.38013,-2.365255 0.549077,-3.547883 -0.50684,-0.211184 -1.055918,-0.422367 -1.604995,-0.591314 -0.12671,-0.04224 -0.295657,-0.08447 -0.422367,-0.08447 z m -7.856027,15.796527 c -0.718023,-1.224865 -0.88697,-2.491966 -0.50684,-3.84354 0.337894,-1.351575 1.140391,-2.365256 2.365255,-3.08328 1.182628,-0.675787 2.491966,-0.844734 3.801304,-0.50684 1.351574,0.38013 2.407492,1.140391 3.083279,2.365255 0.718024,1.224865 0.886971,2.491966 0.50684,3.84354 -0.337893,1.351575 -1.140391,2.365256 -2.323018,3.041043 -1.267101,0.718024 -2.534202,0.886971 -3.84354,0.50684 -1.351575,-0.337893 -2.407492,-1.140391 -3.08328,-2.323018 z" />
    <path fill="#e09500"
      d="m 14.122858,30.547236 c -0.337894,1.140391 -0.211184,2.238545 0.38013,3.252226 h 0.04224 c 0.591314,1.055918 1.478284,1.689468 2.618675,2.027362 1.140391,0.295657 2.238546,0.168947 3.294463,-0.422367 1.055918,-0.633551 1.689468,-1.478285 2.027362,-2.618676 v -0.04224 c 0.295657,-1.140391 0.12671,-2.238546 -0.464604,-3.252227 -0.591314,-1.055917 -1.478284,-1.731704 -2.618675,-2.027361 -1.140391,-0.337894 -2.280782,-0.168947 -3.294463,0.422367 -1.055918,0.591314 -1.689468,1.478284 -1.985125,2.660912 z m 2.534202,-1.689468 c 0.802497,-0.464604 1.604995,-0.591314 2.449729,-0.337894 0.844734,0.211184 1.520521,0.718024 1.985125,1.520522 0.464603,0.76026 0.549077,1.604994 0.337893,2.449728 -0.25342,0.844734 -0.76026,1.520522 -1.520521,1.942889 v 0.04224 c -0.802497,0.422367 -1.604995,0.549078 -2.449729,0.295657 -0.886971,-0.211183 -1.520521,-0.718024 -1.985125,-1.520521 -0.422367,-0.760261 -0.549077,-1.562758 -0.337893,-2.449729 0.25342,-0.844734 0.76026,-1.478284 1.520521,-1.942888 z" />
  </g>
</svg>
