<?xml version="1.0" encoding="UTF-8" standalone="no"?>
<svg width="48" height="48" viewBox="0 0 48 48" version="1.1" xmlns="http://www.w3.org/2000/svg">
  <style type="text/css" id="style1">
    <![CDATA[
    #grey {
      fill: #777777;
    }

    @media (prefers-color-scheme: dark) {
      #grey {
        fill: #bbbbbb;
      }
    }
    ]]>
  </style>
  <path style="fill:#e09500" d="M 26,3 H 44 V 21 H 26 Z" />
  <path style="fill:#ff5500"
    d="M 40.4371,45 33.3768,41.3418 26.2225,44.829 27.6794,37.2784 22,31.8502 29.9609,30.8418 33.6053,24 37.0681,30.9274 45,32.127 39.1795,37.4168 Z" />
  <path id="grey" d="M 13,26 18.5,35.5 24,45 H 13 2 l 5.5,-9.5 z" />
  <path style="fill:#ff5500" d="M 23,12 A 10,10 0 0 1 13,22 10,10 0 0 1 3,12 10,10 0 0 1 13,2 10,10 0 0 1 23,12 Z" />
</svg>