<?xml version="1.0" encoding="UTF-8" standalone="no"?>
<svg width="48" height="48" viewBox="0 0 48 48" version="1.1" xmlns="http://www.w3.org/2000/svg"
  xmlns:svg="http://www.w3.org/2000/svg">
  <g fill="#e09500">
    <path
      d="m 6.8589758,6.1129324 c 1.1386687,0.560001 2.5013378,1.4560027 3.1733392,2.1280039 L 10.85365,7.0836009 C 10.181648,6.4302663 8.7816459,5.6089315 7.6616439,5.1049306 Z M 5.9069741,11.152942 c 1.1573354,0.504 2.5386712,1.344002 3.2106724,1.960003 L 9.9203147,11.974276 C 9.2296467,11.358275 7.8296442,10.555607 6.6909755,10.107606 Z m 0.5040009,9.856017 1.2320022,0.858669 C 8.5949789,20.131624 9.714981,17.798287 10.554982,15.838283 L 9.4536471,14.998282 C 8.5389788,17.107619 7.2883099,19.571623 6.410975,21.008959 Z M 13.616321,4.8809302 v 1.4186692 h -2.725338 v 1.1200021 h 2.725338 v 2.2773374 h 2.426671 v 0.8586681 h -4.237341 v 3.62134 h 4.237341 v 0.896002 0.149333 h -4.461341 v 1.101336 h 4.386675 c -0.056,0.429334 -0.149334,0.840001 -0.298668,1.250668 h -4.909342 v 1.101336 h 4.256008 c -0.784002,0.970668 -2.165337,1.81067 -4.573342,2.370671 0.280001,0.28 0.634668,0.802668 0.802668,1.082668 3.005339,-0.802668 4.573342,-2.03467 5.37601,-3.453339 h 0.186667 c 1.082669,1.829336 3.005339,2.986672 5.65601,3.472006 0.168001,-0.373334 0.541335,-0.877335 0.840002,-1.157335 -2.277338,-0.317334 -4.050674,-1.082669 -5.077343,-2.314671 h 4.722676 v -1.101336 h -5.861344 c 0.130666,-0.410667 0.205333,-0.821334 0.261333,-1.250668 h 4.741342 v -1.101336 h -4.685341 v -0.130667 -0.914668 h 4.461341 v -3.62134 H 17.405662 V 9.6969389 h 2.426671 V 7.4196015 h 3.098672 V 6.2995994 H 19.832333 V 4.8809302 H 18.506997 V 6.2995994 H 14.86699 V 4.8809302 Z m 4.890676,2.5386713 V 8.7076038 H 14.86699 V 7.4196015 Z m -5.43201,4.1066745 h 2.968005 v 1.642669 h -2.968005 z m 4.330675,0 H 20.523 v 1.642669 h -3.117338 z" />
    <path
      d="m 32.451022,13.840946 v 1.176003 h -7.29868 v 1.344002 h 7.29868 v 3.994674 c 0,0.261334 -0.09333,0.354667 -0.429334,0.373334 -0.336001,0 -1.549336,0 -2.800005,-0.03733 0.242667,0.373334 0.504001,1.008002 0.597334,1.400003 1.58667,0 2.576005,-0.01867 3.229339,-0.224 0.672002,-0.242668 0.877335,-0.653335 0.877335,-1.47467 v -4.032007 h 7.29868 v -1.344002 h -7.29868 v -0.690668 c 1.64267,-0.877335 3.322673,-2.146671 4.480008,-3.34134 l -0.952001,-0.728001 -0.317334,0.07467 h -8.922683 v 1.325336 h 7.504014 c -0.952002,0.82133 -2.165338,1.642665 -3.266673,2.183999 z M 31.779021,5.2355975 c 0.354667,0.4853342 0.709334,1.1013353 0.952002,1.6426697 h -7.373347 v 3.8640068 h 1.381336 V 8.2222696 h 12.861356 v 2.5200044 h 1.437336 V 6.8782672 H 34.373692 C 34.112358,6.262266 33.627024,5.4222645 33.14169,4.8062634 Z" />
  </g>
  <g fill="#b945a0">
    <path
      d="m 31.387052,40.630155 v -1.437336 l 2.800005,-0.616001 -2.296004,-9.576017 1.661336,-0.224 1.92267,7.952014 q 0.149334,0.746668 -0.09333,1.568003 0.784001,-0.205334 1.400002,-0.560001 0.616001,-0.373334 1.064002,-1.064002 0.448001,-0.690668 0.728001,-1.86667 0.280001,-1.176002 0.373334,-3.024006 l 0.186667,-2.893338 h 1.717337 l -0.168,2.893338 q -0.130667,2.576005 -0.709335,4.181341 -0.560001,1.605337 -1.717336,2.501338 -1.157336,0.877335 -3.080006,1.306669 z" />
    <path
      d="m 35.960408,42.310158 q -0.224,0 -0.373334,-0.168 -0.149334,-0.149333 -0.149334,-0.373334 0,-0.205334 0.149334,-0.354667 0.149334,-0.149334 0.373334,-0.149334 0.205334,0 0.354667,0.149334 0.168001,0.149333 0.168001,0.354667 0,0.224001 -0.168001,0.373334 -0.149333,0.168 -0.354667,0.168 z" />
    <path
      d="m 20.76569,39.958154 v -1.418669 h 6.122678 v -6.085344 q 0,-2.146671 -2.072004,-2.146671 h -3.490673 l 0.186667,-1.418669 h 3.434673 q 3.658674,0 3.658674,3.50934 v 6.141344 h 1.381335 l -0.205333,1.418669 z" />
    <path
      d="m 25.11502,42.310158 q -0.205334,0 -0.373334,-0.168 -0.149334,-0.149333 -0.149334,-0.373334 0,-0.205334 0.149334,-0.354667 0.168,-0.149334 0.373334,-0.149334 0.224,0 0.373334,0.149334 0.149334,0.149333 0.149334,0.354667 0,0.224001 -0.149334,0.373334 -0.149334,0.168 -0.373334,0.168 z m 0,1.773337 q -0.205334,0 -0.373334,-0.149334 -0.149334,-0.149333 -0.149334,-0.373334 0,-0.205333 0.149334,-0.373334 0.168,-0.149333 0.373334,-0.149333 0.224,0 0.373334,0.149333 0.149334,0.168001 0.149334,0.373334 0,0.224001 -0.149334,0.373334 -0.149334,0.149334 -0.373334,0.149334 z" />
    <path
      d="m 17.349663,39.958154 v -7.504013 q 0,-2.146671 -2.053337,-2.146671 h -3.84534 l 0.205333,-1.418669 h 3.752007 q 3.658673,0 3.658673,3.50934 v 7.560013 z" />
    <path
      d="m 18.208337,42.310158 q -0.224001,0 -0.373334,-0.168 -0.149334,-0.149333 -0.149334,-0.373334 0,-0.205334 0.149334,-0.354667 0.149333,-0.149334 0.373334,-0.149334 0.205333,0 0.354667,0.149334 0.168,0.149333 0.168,0.354667 0,0.224001 -0.168,0.373334 -0.149334,0.168 -0.354667,0.168 z" />
    <path d="M 7.6056444,35.067479 V 30.30747 H 5.9069746 l 0.2053337,-1.418669 h 3.2106725 v 6.178678 z" />
  </g>
</svg>
