<?xml version="1.0" standalone="no"?>
<!DOCTYPE svg PUBLIC "-//W3C//DTD SVG 20010904//EN"
 "http://www.w3.org/TR/2001/REC-SVG-20010904/DTD/svg10.dtd">
<svg version="1.0" xmlns="http://www.w3.org/2000/svg"
 width="549.000000pt" height="549.000000pt" viewBox="0 0 549.000000 549.000000"
 preserveAspectRatio="xMidYMid meet">
<metadata>
Created by potrace 1.14, written by Peter Selinger 2001-2017
</metadata>
<g transform="translate(0.000000,549.000000) scale(0.100000,-0.100000)"
fill="#000000" stroke="none">
<path d="M833 5458 c-82 -23 -100 -38 -172 -143 -55 -81 -105 -188 -132 -280
-9 -33 -31 -107 -49 -164 -29 -97 -59 -280 -80 -486 -6 -49 -14 -126 -19 -170
-17 -141 20 -460 62 -543 9 -20 7 -35 -11 -87 -18 -51 -22 -86 -22 -174 0 -60
-4 -112 -9 -116 -18 -10 -164 -283 -198 -369 -43 -108 -81 -229 -100 -316 -26
-128 -24 -415 6 -575 31 -167 55 -239 87 -254 55 -25 54 -26 105 139 65 210
64 211 64 -95 0 -217 3 -285 17 -345 9 -41 22 -104 27 -140 12 -72 49 -193 86
-277 34 -75 51 -69 85 27 15 41 35 93 44 115 l17 40 31 -69 c17 -38 43 -91 59
-116 16 -26 29 -52 29 -57 0 -5 12 -20 26 -34 14 -13 36 -44 49 -69 13 -25 45
-65 71 -90 25 -25 66 -70 91 -101 24 -31 54 -61 68 -67 22 -10 32 -18 93 -70
45 -38 154 -90 233 -110 151 -39 335 -94 374 -112 22 -10 69 -28 105 -41 36
-12 125 -53 199 -91 74 -38 157 -77 185 -87 28 -10 86 -33 129 -50 103 -42
265 -71 393 -71 154 0 327 47 488 134 27 14 55 26 63 26 15 0 248 114 270 132
7 5 36 16 65 23 54 13 345 112 408 138 19 8 56 18 82 21 49 7 173 81 213 126
11 12 43 37 72 56 29 18 63 50 76 71 14 21 38 50 54 64 16 15 45 47 63 73 18
25 37 46 41 46 4 0 13 17 20 37 6 21 16 44 22 51 6 7 27 47 48 89 38 73 39 74
49 48 5 -14 10 -29 10 -32 0 -3 9 -36 21 -74 18 -58 24 -69 43 -69 42 0 126
108 151 195 10 33 26 87 36 120 44 147 64 320 64 547 l0 216 18 -61 c26 -88
68 -196 82 -207 7 -6 25 -4 50 5 37 12 41 17 52 67 21 88 41 225 54 375 11
127 10 155 -5 260 -36 242 -121 458 -279 715 l-54 86 23 49 c37 79 28 239 -20
331 -17 32 -16 37 7 125 36 132 47 242 37 377 -12 167 -37 354 -59 440 -11 41
-39 156 -62 255 -23 99 -50 198 -61 220 -11 22 -26 63 -35 90 -47 157 -186
286 -323 301 -49 6 -122 -14 -222 -61 -73 -33 -224 -170 -289 -261 -94 -131
-161 -237 -171 -268 -5 -17 -28 -67 -49 -111 -21 -44 -45 -105 -53 -135 -29
-113 -27 -111 -98 -104 -35 3 -71 7 -80 9 -9 1 -72 -1 -139 -6 -190 -14 -414
-81 -559 -167 -25 -14 -61 -35 -81 -45 -20 -10 -47 -29 -59 -42 -23 -24 -24
-25 -44 -7 -47 41 -264 162 -308 171 -26 6 -65 18 -85 26 -107 41 -217 57
-408 62 l-190 4 -32 94 c-17 52 -38 106 -47 122 -9 15 -26 53 -39 83 -13 30
-45 89 -70 130 -26 41 -47 78 -47 82 0 20 -172 217 -244 280 -86 74 -147 107
-244 133 -74 19 -80 18 -169 -7z m3799 -360 c38 -57 64 -125 74 -198 5 -42 31
-175 39 -210 5 -18 41 -185 55 -250 5 -25 14 -60 19 -79 6 -19 10 -35 8 -36
-35 -28 -127 -34 -147 -11 -6 8 -21 16 -33 18 -15 2 -23 11 -26 28 -1 14 -7
28 -12 31 -15 9 7 56 31 69 42 23 22 36 -73 49 -52 7 -98 11 -103 10 -22 -4
-34 2 -34 16 0 20 1 20 -96 -20 -86 -36 -123 -42 -140 -25 -6 6 -23 1 -48 -16
-26 -18 -45 -24 -62 -20 -29 8 -26 29 12 86 13 19 24 38 24 43 0 5 11 23 23
40 13 18 41 64 62 102 46 85 107 165 199 265 61 66 170 159 187 160 3 0 22
-24 41 -52z m-3715 21 c38 -14 242 -223 271 -279 13 -25 37 -58 52 -75 24 -26
170 -273 170 -288 0 -3 -22 -10 -49 -17 -26 -6 -70 -22 -96 -36 -27 -13 -54
-24 -60 -24 -7 0 -20 -9 -30 -20 -10 -11 -22 -20 -26 -20 -4 0 -11 9 -14 20
-3 11 -13 20 -21 20 -9 0 -24 21 -35 48 -29 70 -62 131 -54 102 25 -96 35
-138 35 -160 0 -21 -2 -22 -14 -10 -7 8 -26 38 -41 65 -36 67 -88 146 -92 142
-2 -2 14 -42 35 -88 22 -46 45 -102 52 -124 7 -22 21 -48 31 -58 21 -20 25
-32 8 -21 -6 3 -38 43 -70 87 -32 44 -59 76 -59 71 0 -5 7 -20 16 -32 23 -33
7 -27 -23 8 -38 45 -39 29 -3 -34 17 -31 28 -61 24 -67 -3 -6 0 -16 7 -21 12
-8 11 -9 -1 -6 -8 3 -21 18 -29 34 -26 54 -107 161 -116 152 -4 -4 9 -26 77
-127 33 -49 17 -50 -74 -5 -40 19 -46 20 -36 5 6 -9 30 -28 54 -40 38 -21 64
-58 64 -92 0 -5 -30 6 -66 25 l-65 34 6 -31 c9 -40 29 -63 72 -84 18 -8 33
-20 33 -25 0 -6 -31 -42 -68 -82 -60 -62 -113 -137 -133 -186 -24 -60 -11 274
20 495 45 320 74 464 133 640 37 113 53 128 115 104z m2838 -1080 c149 -18
361 -102 416 -166 8 -10 55 -54 103 -98 49 -44 102 -99 118 -123 16 -24 54
-71 84 -104 30 -33 54 -64 54 -69 0 -33 -96 20 -185 103 -37 34 -226 135 -348
185 l-92 38 -145 -1 c-116 -1 -161 -6 -225 -23 -91 -25 -249 -100 -293 -139
-17 -15 -72 -63 -122 -106 l-92 -80 -42 15 c-48 17 -48 22 -3 118 75 161 184
293 295 358 62 36 175 74 267 88 104 17 105 17 210 4z m-1701 -29 c114 -36
218 -102 297 -188 53 -59 99 -118 118 -152 37 -68 81 -159 81 -167 0 -4 -25
-20 -55 -35 l-54 -28 -116 115 c-63 63 -122 115 -130 115 -8 0 -29 9 -47 20
-138 81 -345 120 -529 98 -116 -14 -313 -90 -397 -155 -68 -51 -175 -158 -189
-188 -37 -79 -53 -98 -72 -86 -40 25 96 268 225 402 59 62 225 195 259 208 5
2 24 10 40 17 17 8 71 23 120 34 122 27 345 22 449 -10z m-184 -617 c76 -19
117 -38 145 -67 12 -12 42 -40 68 -64 26 -23 47 -46 47 -51 0 -5 13 -13 28
-19 29 -10 34 -22 62 -147 15 -66 11 -157 -10 -241 -29 -114 -41 -146 -61
-173 -11 -13 -19 -34 -19 -47 0 -15 -10 -30 -27 -41 -16 -10 -44 -32 -63 -50
-19 -18 -57 -44 -85 -58 -27 -14 -57 -29 -65 -34 -52 -30 -72 -34 -192 -29
-118 5 -126 7 -197 42 -40 21 -80 43 -88 49 -22 17 -103 97 -103 101 0 2 -13
18 -30 36 -16 17 -34 49 -40 70 -6 22 -17 46 -25 54 -8 8 -19 49 -24 95 -13
118 16 240 78 333 41 61 139 161 188 191 114 70 259 88 413 50z m2000 -8 c16
-8 36 -15 45 -15 75 0 258 -150 306 -250 57 -118 64 -260 20 -397 -39 -121
-62 -163 -112 -204 -23 -18 -47 -38 -53 -44 -47 -44 -154 -100 -203 -108 -10
-1 -24 -6 -30 -10 -8 -5 -13 -3 -13 7 0 13 -15 15 -87 14 -65 -2 -101 3 -138
17 -66 25 -146 70 -179 100 -14 13 -38 31 -53 40 -35 20 -96 111 -87 128 4 7
4 9 -1 5 -12 -11 -35 39 -48 102 -16 78 -13 174 8 250 22 79 41 116 80 155 17
17 48 51 70 76 22 25 56 57 75 70 19 13 38 27 41 32 3 4 20 9 37 10 18 1 32 6
32 11 0 5 3 7 6 4 3 -4 29 2 57 12 61 22 181 19 227 -5z m-2584 -70 c-3 -13
-12 -30 -20 -37 -16 -17 -46 -72 -56 -107 -5 -14 -20 -57 -34 -96 -21 -56 -26
-87 -26 -160 0 -49 5 -106 10 -125 5 -19 15 -60 23 -90 19 -75 52 -136 93
-172 46 -41 94 -111 85 -126 -8 -14 -101 42 -101 61 0 7 -16 29 -36 48 -46 44
-85 114 -124 219 -26 70 -31 99 -31 166 0 44 3 89 7 100 9 27 70 152 94 194
11 19 20 42 20 50 0 25 58 80 78 74 14 -5 14 -4 3 4 -13 9 -13 13 -1 27 17 20
25 6 16 -30z m3629 -183 c17 -15 42 -42 58 -61 15 -18 27 -29 27 -25 0 4 20
-21 45 -56 26 -37 43 -71 40 -79 -3 -9 -3 -12 1 -9 3 4 17 -7 30 -25 22 -29
31 -46 69 -132 48 -106 95 -330 95 -450 -1 -68 -26 -230 -29 -185 -1 18 -87
201 -118 250 -12 20 -31 47 -43 59 -11 13 -20 28 -20 32 0 13 -129 147 -193
201 -84 70 -94 55 -40 -62 94 -201 142 -335 170 -470 22 -105 26 -447 7 -605
-17 -139 -46 -267 -62 -273 -6 -2 -16 16 -22 40 -21 87 -51 175 -64 193 -11
15 -17 16 -49 6 -47 -16 -51 -21 -82 -126 -56 -187 -73 -232 -113 -295 -71
-113 -161 -227 -208 -264 -16 -12 -50 -42 -75 -66 -46 -45 -215 -137 -294
-161 -22 -6 -44 -15 -50 -19 -5 -4 -26 -11 -45 -15 -19 -3 -54 -15 -77 -26
-24 -10 -49 -19 -56 -19 -36 0 -194 -56 -296 -105 -62 -30 -117 -55 -121 -55
-4 0 -13 -6 -19 -14 -7 -8 -26 -18 -44 -22 -17 -3 -69 -27 -116 -52 -176 -95
-194 -102 -316 -119 -130 -18 -237 -11 -385 26 -113 29 -135 37 -223 79 -45
22 -116 55 -157 75 -41 19 -114 53 -162 76 -48 23 -91 41 -97 41 -5 0 -14 6
-18 14 -7 12 -120 46 -154 46 -41 0 -281 85 -395 141 -44 21 -86 39 -92 39
-17 0 -182 157 -224 215 -36 47 -83 116 -134 195 -31 47 -126 255 -174 382
-17 44 -28 59 -51 67 -33 11 -59 -6 -59 -39 0 -10 -4 -22 -10 -25 -5 -3 -10
-18 -10 -33 0 -15 -9 -45 -18 -67 l-18 -40 -12 48 c-7 26 -10 58 -6 70 3 13
-4 73 -16 133 -27 143 -37 371 -20 500 12 96 42 231 59 263 5 9 18 51 30 95
22 81 41 128 93 232 16 34 28 70 26 80 -5 27 -133 -87 -199 -178 -29 -40 -61
-81 -70 -91 -19 -21 -109 -170 -109 -181 0 -4 -10 -30 -22 -57 -15 -36 -24
-47 -30 -37 -10 15 -1 224 13 313 12 76 65 267 89 320 10 22 27 61 38 87 20
46 71 118 135 192 l34 38 44 -22 c41 -21 239 -137 248 -146 2 -2 -2 -28 -9
-58 -10 -42 -10 -85 -1 -207 13 -179 33 -257 106 -401 l49 -96 -46 -51 c-62
-69 -95 -127 -103 -184 -4 -26 -11 -50 -16 -53 -14 -8 -10 -182 6 -265 21
-114 54 -185 112 -246 6 -7 20 -23 30 -35 37 -47 130 -98 176 -98 17 0 11 8
-28 35 -156 110 -235 285 -221 487 4 47 14 110 22 139 19 62 103 203 125 207
9 2 28 -15 45 -40 49 -72 122 -131 209 -168 25 -11 45 -23 45 -28 0 -15 130
-51 230 -63 58 -7 123 -8 170 -3 67 7 145 7 265 0 45 -3 236 -53 248 -65 5 -5
-6 -30 -23 -57 -17 -27 -37 -72 -46 -100 -28 -97 -16 -303 20 -354 6 -8 19
-31 29 -50 18 -35 117 -145 171 -189 61 -50 183 -109 259 -125 38 -9 34 -19
-20 -48 -68 -37 -149 -51 -298 -52 -117 -1 -139 2 -220 28 -108 34 -234 97
-293 144 -103 84 -197 241 -226 380 l-14 62 40 0 c41 0 59 20 42 48 -21 33
-370 139 -391 118 -13 -13 63 -66 149 -103 78 -34 88 -41 88 -64 0 -14 9 -61
21 -105 11 -43 23 -90 25 -103 14 -67 124 -242 183 -289 25 -20 67 -55 92 -77
26 -23 66 -47 90 -55 57 -18 96 -45 113 -78 8 -15 29 -43 46 -62 18 -19 50
-63 71 -97 42 -65 114 -132 191 -176 43 -25 131 -54 276 -93 90 -24 189 -18
300 17 108 35 178 64 197 82 7 7 36 30 65 52 29 22 56 45 61 50 5 6 37 43 73
84 35 41 74 93 85 117 18 36 30 46 82 66 33 14 84 42 112 64 59 44 197 182
197 196 0 5 13 26 29 46 33 41 61 112 61 155 0 15 5 27 11 27 6 0 9 7 6 15 -4
8 -3 16 1 19 4 3 9 22 10 43 4 69 23 130 48 154 21 19 37 24 90 25 66 2 121
25 108 45 -9 16 -53 30 -106 34 -65 6 -118 -16 -158 -66 -27 -34 -35 -55 -46
-131 -20 -133 -84 -257 -185 -359 -85 -85 -154 -124 -319 -181 -92 -32 -99
-32 -250 -31 -144 1 -159 3 -214 27 -76 34 -90 45 -75 62 6 7 24 16 41 19 27
6 95 40 108 55 3 3 18 12 34 20 36 18 137 121 206 208 64 83 110 200 110 282
0 63 -28 161 -62 218 -23 37 -15 56 27 66 34 9 110 61 135 94 16 19 21 37 18
64 -4 43 6 47 52 23 15 -8 90 -24 166 -36 198 -30 352 -24 487 20 85 28 161
63 177 81 3 3 16 11 30 18 45 23 70 39 91 58 21 19 21 19 45 -11 14 -17 41
-64 62 -104 36 -72 37 -79 37 -180 0 -88 -4 -114 -21 -151 -12 -25 -37 -76
-55 -115 -24 -51 -50 -87 -96 -130 -84 -79 -83 -94 2 -55 43 20 135 113 135
137 0 7 4 13 8 13 5 0 15 12 23 27 8 15 24 38 37 51 12 14 22 33 22 43 0 10 4
20 9 23 13 9 33 99 33 154 1 93 -51 236 -120 331 -18 24 -32 51 -32 60 0 9 27
59 60 111 73 115 76 122 107 235 18 62 26 114 25 170 0 68 -8 128 -49 358 -4
18 -1 27 8 27 8 0 52 18 99 40 47 21 90 39 95 39 6 0 24 -12 40 -27z m-2077
-36 c11 -7 13 -30 8 -105 -9 -140 11 -287 55 -415 18 -53 20 -83 20 -274 -1
-117 -3 -218 -6 -223 -3 -5 -12 -48 -20 -95 -8 -48 -20 -93 -27 -101 -15 -14
-50 -18 -144 -15 -96 3 -103 13 -109 152 -3 63 -10 138 -15 167 -5 29 -12 121
-16 205 -6 137 -4 162 15 238 12 46 26 127 32 180 18 169 58 274 109 287 39
10 82 10 98 -1z m312 -101 c-6 -8 -9 -18 -6 -23 3 -5 -1 -9 -8 -9 -7 0 -13 12
-14 29 -1 29 12 38 21 16 3 -7 6 -4 7 7 1 12 4 15 7 7 3 -7 0 -19 -7 -27z m4
-195 c-1 -8 -3 -19 -3 -23 -2 -16 -30 21 -37 47 -5 20 -2 26 10 26 9 0 17 6
17 13 1 6 5 -1 8 -18 4 -16 6 -37 5 -45z m0 -105 c-5 -22 -3 -25 20 -25 14 0
26 -2 26 -4 0 -2 3 -12 7 -22 5 -13 3 -15 -8 -9 -11 6 -11 5 -2 -5 6 -7 9 -19
6 -26 -3 -8 1 -14 11 -14 19 0 21 11 4 28 -8 8 -8 12 -1 12 13 0 25 -28 17
-41 -3 -5 0 -9 5 -9 6 0 11 -5 11 -10 0 -6 14 -24 30 -40 17 -16 30 -36 30
-45 0 -9 5 -13 10 -10 6 3 10 2 10 -3 0 -6 16 -19 35 -31 19 -11 35 -27 35
-36 0 -10 5 -13 12 -9 6 4 17 -1 23 -10 7 -9 22 -18 33 -21 11 -2 41 -14 68
-26 27 -13 53 -22 58 -21 4 2 13 -1 20 -7 18 -15 122 -33 174 -30 82 4 102
-31 28 -50 -66 -16 -139 -13 -188 7 -24 11 -62 22 -86 26 -24 3 -51 11 -60 16
-9 5 -30 12 -46 15 -16 3 -44 22 -62 41 -19 18 -39 34 -45 34 -31 0 -139 118
-131 143 1 4 -2 7 -6 7 -9 0 -45 59 -49 79 -1 8 -5 17 -10 20 -4 3 -9 22 -10
41 -2 30 -1 32 7 13 13 -30 22 -29 14 1 -3 14 -3 30 1 35 11 19 16 12 9 -14z
m641 -345 c-3 -5 -17 -10 -31 -10 -14 0 -22 4 -19 10 3 6 17 10 31 10 14 0 22
-4 19 -10z m-647 -171 c129 -135 121 -127 140 -141 31 -23 52 -75 52 -126 0
-47 -3 -53 -42 -86 -23 -20 -45 -36 -48 -36 -4 0 -18 10 -32 23 -13 12 -63 42
-110 66 l-86 44 5 170 c4 158 7 187 19 187 2 0 48 -46 102 -101z m-665 -86 c4
-58 7 -132 7 -165 0 -53 -2 -58 -22 -58 -13 0 -45 -11 -72 -23 l-50 -23 -47
30 c-25 17 -60 39 -78 48 -64 35 -51 58 85 155 32 23 81 65 109 92 27 28 52
51 56 51 3 0 9 -48 12 -107z"/>
<path d="M1120 4511 c0 -6 4 -13 10 -16 6 -3 7 1 4 9 -7 18 -14 21 -14 7z"/>
<path d="M1158 4431 c9 -22 20 -37 24 -35 6 4 -29 74 -37 74 -2 0 4 -18 13
-39z"/>
<path d="M1645 3270 c-53 -15 -130 -45 -144 -55 -105 -78 -159 -159 -181 -273
-22 -112 21 -238 114 -332 70 -71 143 -107 243 -122 73 -11 85 -10 149 11 89
28 157 71 189 118 14 21 39 58 56 83 83 124 74 292 -22 410 -70 85 -87 96
-224 147 -49 18 -140 25 -180 13z m315 -211 c38 -14 53 -46 58 -126 6 -100
-15 -156 -79 -206 -27 -21 -49 -34 -49 -28 0 6 -17 18 -37 27 -40 16 -112 95
-126 139 -23 69 20 145 106 185 60 28 74 29 127 9z"/>
<path d="M2101 2564 c0 -11 3 -14 6 -6 3 7 2 16 -1 19 -3 4 -6 -2 -5 -13z"/>
<path d="M3605 3257 c-98 -37 -205 -111 -205 -143 0 -6 -15 -43 -32 -80 -30
-63 -33 -77 -33 -164 0 -93 1 -97 45 -179 47 -90 98 -148 139 -158 14 -3 39
-14 56 -24 16 -10 66 -23 110 -30 70 -10 88 -10 139 5 88 26 162 63 199 100
104 103 153 288 111 413 -66 195 -167 270 -374 278 -80 4 -104 1 -155 -18z
m347 -214 c38 -19 85 -85 94 -131 9 -42 -12 -98 -53 -143 -30 -33 -42 -39 -76
-39 -53 0 -139 44 -163 84 -25 42 -26 151 -2 188 19 28 84 56 135 57 18 1 47
-7 65 -16z"/>
</g>
</svg>
