<?xml version="1.0" standalone="no"?>
<!DOCTYPE svg PUBLIC "-//W3C//DTD SVG 20010904//EN"
 "http://www.w3.org/TR/2001/REC-SVG-20010904/DTD/svg10.dtd">
<svg version="1.0" xmlns="http://www.w3.org/2000/svg"
 width="660.000000pt" height="660.000000pt" viewBox="0 0 660.000000 660.000000"
 preserveAspectRatio="xMidYMid meet">
<metadata>
Created by potrace 1.14, written by Peter Selinger 2001-2017
</metadata>
<g transform="translate(0.000000,660.000000) scale(0.100000,-0.100000)"
fill="#000000" stroke="none">
<path d="M1037 6559 c-163 -38 -292 -217 -393 -545 -86 -277 -104 -368 -150
-769 -21 -184 -25 -256 -21 -360 6 -138 27 -297 50 -380 8 -27 20 -70 27 -95
12 -43 11 -49 -25 -135 l-37 -90 7 -106 7 -107 -78 -138 c-143 -256 -219 -439
-275 -664 -22 -88 -24 -114 -23 -350 0 -264 9 -349 55 -528 25 -97 39 -124 73
-140 24 -12 30 -12 42 -1 7 8 36 83 63 167 28 84 59 167 68 185 l18 32 3 -85
c14 -484 23 -652 35 -705 8 -33 20 -91 27 -130 16 -87 94 -332 116 -363 9 -13
21 -21 26 -20 6 2 34 62 62 133 28 72 55 129 61 129 5 -1 40 -62 78 -135 82
-159 169 -284 303 -435 111 -124 143 -153 229 -211 125 -84 212 -119 513 -208
220 -65 391 -131 617 -240 329 -158 510 -218 704 -234 229 -18 406 15 644 123
78 35 183 82 232 104 50 22 141 63 203 91 63 29 211 85 330 126 536 182 568
199 772 404 158 160 193 206 288 382 43 78 83 144 89 146 7 3 22 -30 38 -84
45 -156 58 -167 124 -101 63 64 90 115 133 261 69 235 97 449 99 767 0 96 4
186 8 200 7 21 12 13 34 -58 15 -46 27 -88 27 -95 0 -7 9 -29 20 -50 11 -20
20 -43 20 -50 0 -27 37 -49 69 -42 42 9 49 21 71 121 42 198 72 514 59 642
-29 282 -131 564 -324 891 -41 70 -75 136 -75 147 0 10 9 44 21 74 18 48 20
70 17 170 -4 96 -9 126 -33 183 l-28 69 27 116 c50 217 55 320 30 564 -22 226
-38 316 -105 598 -99 420 -160 575 -275 699 -74 80 -120 105 -221 122 -89 15
-165 -2 -293 -63 -76 -36 -99 -55 -211 -169 -70 -70 -157 -168 -193 -216 -80
-106 -166 -278 -235 -472 -29 -80 -57 -153 -62 -163 -9 -16 -26 -18 -198 -18
-262 0 -394 -25 -631 -117 -133 -52 -272 -124 -348 -182 l-54 -40 -91 64
c-177 122 -367 199 -620 250 -107 21 -151 25 -314 25 l-190 0 -16 43 c-9 23
-26 71 -38 107 -40 121 -155 344 -249 485 -108 162 -273 334 -381 398 -121 71
-252 100 -352 76z m4528 -423 c39 -44 79 -149 100 -262 9 -49 36 -170 60 -269
106 -440 117 -501 123 -658 4 -141 3 -152 -23 -233 -15 -46 -31 -84 -34 -84
-4 0 -37 44 -74 98 -170 250 -354 403 -666 556 l-170 83 103 179 c161 283 253
415 379 546 92 95 147 107 202 44z m-4426 2 c88 -75 290 -316 377 -448 92
-142 178 -300 168 -309 -5 -5 -34 -16 -64 -26 -75 -24 -193 -84 -276 -140
-175 -120 -438 -361 -510 -469 l-39 -59 -8 34 c-21 91 0 510 38 748 35 213
119 550 155 622 41 79 99 97 159 47z m1261 -1300 c85 -15 204 -65 283 -118 84
-56 196 -169 255 -257 58 -86 136 -243 126 -252 -5 -5 -36 -23 -69 -41 l-60
-32 -125 125 c-120 119 -130 127 -240 180 -195 94 -337 124 -525 112 -188 -12
-269 -33 -440 -116 -167 -81 -306 -208 -397 -363 -24 -41 -30 -45 -47 -36 -19
10 -19 12 -4 63 54 185 172 352 347 493 267 216 580 300 896 242z m2261 -3
c105 -22 196 -64 324 -150 142 -94 252 -202 370 -363 50 -68 91 -127 93 -132
2 -5 -9 -15 -24 -23 -28 -15 -29 -14 -124 71 -196 176 -310 246 -476 294 -71
21 -99 23 -279 22 -174 0 -211 -3 -280 -22 -204 -57 -429 -210 -535 -367 -18
-28 -34 -51 -36 -53 -1 -2 -32 14 -69 37 -37 22 -72 42 -79 44 -13 4 96 232
146 305 44 65 122 146 191 199 66 51 200 117 272 134 133 30 369 33 506 4z
m-2396 -641 c75 -17 249 -103 303 -150 53 -45 138 -162 169 -233 36 -79 72
-230 79 -325 8 -108 -14 -207 -70 -321 -39 -78 -58 -104 -143 -186 -102 -99
-186 -151 -321 -199 -55 -20 -75 -22 -175 -17 -124 6 -224 30 -327 79 -49 24
-91 57 -172 137 -94 93 -112 117 -146 191 -56 121 -67 174 -67 330 0 125 2
141 31 222 71 198 187 329 379 426 138 69 295 85 460 46z m2414 -4 c174 -33
366 -166 471 -326 132 -202 146 -474 35 -695 -96 -191 -235 -308 -460 -386
-97 -34 -225 -41 -334 -19 -143 29 -225 77 -370 219 -247 240 -300 556 -139
832 62 106 142 200 210 246 70 48 208 115 264 128 53 12 260 13 323 1z m-1270
-421 c63 -32 63 -32 57 -68 -4 -20 -11 -71 -17 -114 -21 -167 33 -463 115
-626 14 -26 34 -76 46 -111 72 -214 352 -442 630 -515 213 -56 475 -72 645
-40 188 35 332 109 477 244 88 82 170 214 254 404 l56 129 1 111 c1 76 -4 130
-15 167 -9 30 -19 102 -22 160 -4 58 -11 122 -15 144 l-9 38 66 30 c113 52
200 78 225 68 24 -9 89 -74 130 -130 38 -53 81 -130 162 -295 81 -165 119
-271 137 -379 13 -83 17 -340 5 -409 l-8 -48 -77 153 c-42 84 -98 185 -123
223 -52 80 -262 298 -298 310 -42 13 -46 -8 -13 -82 64 -141 151 -361 170
-428 78 -268 91 -560 42 -935 -13 -95 -61 -290 -72 -290 -4 0 -8 2 -8 4 0 3
-16 58 -35 123 -23 75 -43 124 -57 136 -20 17 -72 23 -102 11 -10 -4 -38 -74
-77 -196 -66 -202 -100 -270 -213 -423 -68 -92 -203 -228 -291 -293 -99 -74
-263 -146 -515 -228 -129 -42 -278 -93 -330 -114 -133 -54 -396 -178 -515
-243 -158 -86 -285 -117 -484 -117 -229 0 -354 40 -910 294 -128 59 -274 118
-325 132 -273 76 -594 204 -695 278 -185 136 -387 448 -541 837 -45 114 -71
149 -107 149 -27 0 -37 -20 -79 -150 -21 -68 -43 -110 -44 -83 0 4 -12 76 -26
158 -21 126 -26 195 -31 431 -7 328 -1 380 63 603 50 172 91 282 154 414 23
49 39 91 36 94 -13 13 -61 -25 -152 -119 -111 -116 -249 -319 -314 -461 -24
-53 -47 -97 -52 -97 -11 0 -10 158 2 281 28 271 132 583 245 735 21 27 58 70
83 96 l46 47 30 -18 c318 -185 316 -184 308 -211 -14 -51 -6 -381 12 -468 21
-105 68 -237 114 -327 48 -92 171 -220 286 -296 292 -196 554 -252 908 -193
242 40 387 123 565 321 137 153 199 291 213 473 5 58 16 148 24 200 22 131 21
296 -3 392 -21 90 -19 95 65 128 74 29 130 26 203 -11z"/>
<path d="M2005 3930 c-105 -21 -228 -90 -290 -163 -82 -96 -115 -217 -97 -357
30 -235 235 -410 482 -410 192 0 343 98 433 278 l42 86 0 116 c0 113 -1 118
-34 184 -100 196 -326 308 -536 266z m345 -262 c65 -33 101 -90 107 -169 5
-80 -20 -129 -91 -176 -62 -42 -113 -44 -187 -5 -143 75 -128 282 26 353 53
25 91 24 145 -3z"/>
<path d="M4420 3934 c-205 -55 -322 -177 -365 -380 -18 -87 -18 -123 0 -202
45 -189 149 -291 349 -343 126 -33 232 -21 363 42 114 54 213 181 242 310 26
113 8 256 -46 362 -89 176 -328 269 -543 211z m363 -293 c113 -72 118 -236 10
-318 -71 -55 -208 -27 -270 54 -35 45 -44 143 -19 191 36 69 92 101 177 102
44 0 64 -6 102 -29z"/>
<path d="M3123 2279 c-45 -5 -125 -23 -177 -39 -223 -72 -316 -212 -316 -475
0 -118 15 -176 72 -287 59 -115 244 -285 360 -332 18 -7 66 -26 106 -40 39
-15 72 -33 72 -39 0 -16 -31 -34 -109 -64 -60 -23 -84 -26 -258 -31 -188 -5
-193 -4 -280 23 -248 77 -452 219 -544 380 -38 66 -105 239 -113 293 l-6 42
44 0 c71 0 88 43 29 74 -38 19 -233 82 -310 100 -51 11 -65 12 -80 1 -15 -11
-16 -15 -3 -31 8 -9 65 -41 126 -70 l112 -53 6 -48 c12 -85 57 -255 78 -297
109 -216 246 -355 454 -459 94 -47 123 -73 206 -183 93 -126 171 -194 282
-248 232 -114 439 -150 608 -107 215 55 322 127 558 376 78 82 110 108 176
142 285 148 468 391 510 676 18 125 27 149 71 187 29 26 41 30 94 30 66 0 133
22 127 42 -8 23 -61 41 -133 45 -136 8 -193 -51 -234 -244 -39 -183 -96 -286
-231 -425 -85 -87 -106 -102 -193 -143 -198 -94 -326 -121 -527 -112 -125 5
-240 38 -297 82 l-27 23 104 52 c133 67 180 99 259 179 181 184 258 341 249
510 -5 102 -50 221 -106 282 -63 71 -199 144 -324 174 -77 19 -322 27 -435 14z"/>
</g>
</svg>
